<svg xmlns="http://www.w3.org/2000/svg" version="1.1" xmlns:xlink="http://www.w3.org/1999/xlink" xmlns:svgjs="http://svgjs.dev/svgjs" width="1440" height="560" preserveAspectRatio="none" viewBox="0 0 1440 560"><g mask="url(&quot;#SvgjsMask1010&quot;)" fill="none"><path d="M-107.81 371.75L-107.81 371.75" stroke="#132e65" stroke-width="1.5"></path><path d="M-107.81 371.75L-82.43 501.72" stroke="#132e65" stroke-width="1.5"></path><path d="M-107.81 371.75L100.25 351.38" stroke="#132e65" stroke-width="1.5"></path><path d="M-107.81 371.75L-64.58 640.79" stroke="#132e65" stroke-width="1.5"></path><path d="M-107.81 371.75L210.22 401.91" stroke="#132e65" stroke-width="1.5"></path><path d="M-82.43 501.72L-82.43 501.72" stroke="#132e65" stroke-width="1.5"></path><path d="M-82.43 501.72L-64.58 640.79" stroke="#132e65" stroke-width="1.5"></path><path d="M-82.43 501.72L100.25 351.38" stroke="#132e65" stroke-width="1.5"></path><path d="M-64.58 640.79L-64.58 640.79" stroke="#132e65" stroke-width="1.5"></path><path d="M-64.58 640.79L98.02 697.85" stroke="#132e65" stroke-width="1.5"></path><path d="M-64.58 640.79L207.82 637.91" stroke="#132e65" stroke-width="1.5"></path><path d="M-64.58 640.79L223.99 555.84" stroke="#132e65" stroke-width="1.5"></path><path d="M100.25 351.38L100.25 351.38" stroke="#132e65" stroke-width="1.5"></path><path d="M100.25 351.38L210.22 401.91" stroke="#132e65" stroke-width="1.5"></path><path d="M98.02 697.85L98.02 697.85" stroke="#132e65" stroke-width="1.5"></path><path d="M98.02 697.85L207.82 637.91" stroke="#132e65" stroke-width="1.5"></path><path d="M98.02 697.85L223.99 555.84" stroke="#132e65" stroke-width="1.5"></path><path d="M98.02 697.85L-82.43 501.72" stroke="#132e65" stroke-width="1.5"></path><path d="M98.02 697.85L364.56 655.58" stroke="#132e65" stroke-width="1.5"></path><path d="M98.02 697.85L338.85 515.48" stroke="#132e65" stroke-width="1.5"></path><path d="M210.22 401.91L210.22 401.91" stroke="#132e65" stroke-width="1.5"></path><path d="M210.22 401.91L351.62 406.4" stroke="#132e65" stroke-width="1.5"></path><path d="M210.22 401.91L223.99 555.84" stroke="#132e65" stroke-width="1.5"></path><path d="M223.99 555.84L223.99 555.84" stroke="#132e65" stroke-width="1.5"></path><path d="M223.99 555.84L207.82 637.91" stroke="#132e65" stroke-width="1.5"></path><path d="M223.99 555.84L338.85 515.48" stroke="#132e65" stroke-width="1.5"></path><path d="M207.82 637.91L207.82 637.91" stroke="#132e65" stroke-width="1.5"></path><path d="M207.82 637.91L364.56 655.58" stroke="#132e65" stroke-width="1.5"></path><path d="M207.82 637.91L338.85 515.48" stroke="#132e65" stroke-width="1.5"></path><path d="M351.62 406.4L351.62 406.4" stroke="#132e65" stroke-width="1.5"></path><path d="M351.62 406.4L338.85 515.48" stroke="#132e65" stroke-width="1.5"></path><path d="M338.85 515.48L338.85 515.48" stroke="#132e65" stroke-width="1.5"></path><path d="M338.85 515.48L364.56 655.58" stroke="#132e65" stroke-width="1.5"></path><path d="M338.85 515.48L210.22 401.91" stroke="#132e65" stroke-width="1.5"></path><path d="M338.85 515.48L521.9 490.46" stroke="#132e65" stroke-width="1.5"></path><path d="M364.56 655.58L364.56 655.58" stroke="#132e65" stroke-width="1.5"></path><path d="M364.56 655.58L505.48 659.99" stroke="#132e65" stroke-width="1.5"></path><path d="M364.56 655.58L223.99 555.84" stroke="#132e65" stroke-width="1.5"></path><path d="M364.56 655.58L521.9 490.46" stroke="#132e65" stroke-width="1.5"></path><path d="M534.03 406.3L534.03 406.3" stroke="#132e65" stroke-width="1.5"></path><path d="M534.03 406.3L521.9 490.46" stroke="#132e65" stroke-width="1.5"></path><path d="M534.03 406.3L648.35 399.23" stroke="#132e65" stroke-width="1.5"></path><path d="M534.03 406.3L351.62 406.4" stroke="#132e65" stroke-width="1.5"></path><path d="M521.9 490.46L521.9 490.46" stroke="#132e65" stroke-width="1.5"></path><path d="M521.9 490.46L650.54 550.15" stroke="#132e65" stroke-width="1.5"></path><path d="M521.9 490.46L648.35 399.23" stroke="#132e65" stroke-width="1.5"></path><path d="M521.9 490.46L505.48 659.99" stroke="#132e65" stroke-width="1.5"></path><path d="M505.48 659.99L505.48 659.99" stroke="#132e65" stroke-width="1.5"></path><path d="M505.48 659.99L678 648.39" stroke="#132e65" stroke-width="1.5"></path><path d="M505.48 659.99L650.54 550.15" stroke="#132e65" stroke-width="1.5"></path><path d="M505.48 659.99L338.85 515.48" stroke="#132e65" stroke-width="1.5"></path><path d="M505.48 659.99L534.03 406.3" stroke="#132e65" stroke-width="1.5"></path><path d="M648.35 399.23L648.35 399.23" stroke="#132e65" stroke-width="1.5"></path><path d="M648.35 399.23L650.54 550.15" stroke="#132e65" stroke-width="1.5"></path><path d="M648.35 399.23L818.55 390.66" stroke="#132e65" stroke-width="1.5"></path><path d="M650.54 550.15L650.54 550.15" stroke="#132e65" stroke-width="1.5"></path><path d="M650.54 550.15L678 648.39" stroke="#132e65" stroke-width="1.5"></path><path d="M678 648.39L678 648.39" stroke="#132e65" stroke-width="1.5"></path><path d="M678 648.39L803.44 546" stroke="#132e65" stroke-width="1.5"></path><path d="M789.03 240.37L789.03 240.37" stroke="#132e65" stroke-width="1.5"></path><path d="M789.03 240.37L818.55 390.66" stroke="#132e65" stroke-width="1.5"></path><path d="M789.03 240.37L978.81 255.23" stroke="#132e65" stroke-width="1.5"></path><path d="M789.03 240.37L648.35 399.23" stroke="#132e65" stroke-width="1.5"></path><path d="M789.03 240.37L987.79 337.76" stroke="#132e65" stroke-width="1.5"></path><path d="M789.03 240.37L534.03 406.3" stroke="#132e65" stroke-width="1.5"></path><path d="M818.55 390.66L818.55 390.66" stroke="#132e65" stroke-width="1.5"></path><path d="M803.44 546L803.44 546" stroke="#132e65" stroke-width="1.5"></path><path d="M803.44 546L650.54 550.15" stroke="#132e65" stroke-width="1.5"></path><path d="M803.44 546L842.19 694.39" stroke="#132e65" stroke-width="1.5"></path><path d="M803.44 546L818.55 390.66" stroke="#132e65" stroke-width="1.5"></path><path d="M803.44 546L648.35 399.23" stroke="#132e65" stroke-width="1.5"></path><path d="M842.19 694.39L842.19 694.39" stroke="#132e65" stroke-width="1.5"></path><path d="M842.19 694.39L973.82 675.87" stroke="#132e65" stroke-width="1.5"></path><path d="M842.19 694.39L678 648.39" stroke="#132e65" stroke-width="1.5"></path><path d="M991.42 -102.53L991.42 -102.53" stroke="#132e65" stroke-width="1.5"></path><path d="M991.42 -102.53L1129.98 -96.58" stroke="#132e65" stroke-width="1.5"></path><path d="M991.42 -102.53L1285.82 -62.74" stroke="#132e65" stroke-width="1.5"></path><path d="M978.81 255.23L978.81 255.23" stroke="#132e65" stroke-width="1.5"></path><path d="M978.81 255.23L987.79 337.76" stroke="#132e65" stroke-width="1.5"></path><path d="M978.81 255.23L1101.74 196.78" stroke="#132e65" stroke-width="1.5"></path><path d="M978.81 255.23L1093.11 347.32" stroke="#132e65" stroke-width="1.5"></path><path d="M978.81 255.23L818.55 390.66" stroke="#132e65" stroke-width="1.5"></path><path d="M987.79 337.76L987.79 337.76" stroke="#132e65" stroke-width="1.5"></path><path d="M987.79 337.76L1093.11 347.32" stroke="#132e65" stroke-width="1.5"></path><path d="M987.79 337.76L818.55 390.66" stroke="#132e65" stroke-width="1.5"></path><path d="M987.79 337.76L1101.74 196.78" stroke="#132e65" stroke-width="1.5"></path><path d="M973.82 675.87L973.82 675.87" stroke="#132e65" stroke-width="1.5"></path><path d="M973.82 675.87L1106.4 685" stroke="#132e65" stroke-width="1.5"></path><path d="M973.82 675.87L803.44 546" stroke="#132e65" stroke-width="1.5"></path><path d="M973.82 675.87L1132.29 510.43" stroke="#132e65" stroke-width="1.5"></path><path d="M1129.98 -96.58L1129.98 -96.58" stroke="#132e65" stroke-width="1.5"></path><path d="M1129.98 -96.58L1285.82 -62.74" stroke="#132e65" stroke-width="1.5"></path><path d="M1129.98 -96.58L1301.6 56.21" stroke="#132e65" stroke-width="1.5"></path><path d="M1101.74 196.78L1101.74 196.78" stroke="#132e65" stroke-width="1.5"></path><path d="M1101.74 196.78L1093.11 347.32" stroke="#132e65" stroke-width="1.5"></path><path d="M1101.74 196.78L1288.86 225.58" stroke="#132e65" stroke-width="1.5"></path><path d="M1101.74 196.78L1301.6 56.21" stroke="#132e65" stroke-width="1.5"></path><path d="M1101.74 196.78L1391.75 195.27" stroke="#132e65" stroke-width="1.5"></path><path d="M1093.11 347.32L1093.11 347.32" stroke="#132e65" stroke-width="1.5"></path><path d="M1132.29 510.43L1132.29 510.43" stroke="#132e65" stroke-width="1.5"></path><path d="M1132.29 510.43L1258.38 515.83" stroke="#132e65" stroke-width="1.5"></path><path d="M1132.29 510.43L1093.11 347.32" stroke="#132e65" stroke-width="1.5"></path><path d="M1132.29 510.43L1106.4 685" stroke="#132e65" stroke-width="1.5"></path><path d="M1132.29 510.43L1301.16 409.58" stroke="#132e65" stroke-width="1.5"></path><path d="M1132.29 510.43L1253.86 693.22" stroke="#132e65" stroke-width="1.5"></path><path d="M1106.4 685L1106.4 685" stroke="#132e65" stroke-width="1.5"></path><path d="M1106.4 685L1253.86 693.22" stroke="#132e65" stroke-width="1.5"></path><path d="M1106.4 685L1258.38 515.83" stroke="#132e65" stroke-width="1.5"></path><path d="M1285.82 -62.74L1285.82 -62.74" stroke="#132e65" stroke-width="1.5"></path><path d="M1285.82 -62.74L1301.6 56.21" stroke="#132e65" stroke-width="1.5"></path><path d="M1285.82 -62.74L1424.68 -73.98" stroke="#132e65" stroke-width="1.5"></path><path d="M1285.82 -62.74L1427.56 72.25" stroke="#132e65" stroke-width="1.5"></path><path d="M1301.6 56.21L1301.6 56.21" stroke="#132e65" stroke-width="1.5"></path><path d="M1301.6 56.21L1427.56 72.25" stroke="#132e65" stroke-width="1.5"></path><path d="M1301.6 56.21L1391.75 195.27" stroke="#132e65" stroke-width="1.5"></path><path d="M1288.86 225.58L1288.86 225.58" stroke="#132e65" stroke-width="1.5"></path><path d="M1288.86 225.58L1391.75 195.27" stroke="#132e65" stroke-width="1.5"></path><path d="M1288.86 225.58L1301.6 56.21" stroke="#132e65" stroke-width="1.5"></path><path d="M1288.86 225.58L1301.16 409.58" stroke="#132e65" stroke-width="1.5"></path><path d="M1301.16 409.58L1301.16 409.58" stroke="#132e65" stroke-width="1.5"></path><path d="M1301.16 409.58L1258.38 515.83" stroke="#132e65" stroke-width="1.5"></path><path d="M1301.16 409.58L1409.1 527.65" stroke="#132e65" stroke-width="1.5"></path><path d="M1301.16 409.58L1093.11 347.32" stroke="#132e65" stroke-width="1.5"></path><path d="M1301.16 409.58L1391.75 195.27" stroke="#132e65" stroke-width="1.5"></path><path d="M1258.38 515.83L1258.38 515.83" stroke="#132e65" stroke-width="1.5"></path><path d="M1258.38 515.83L1409.1 527.65" stroke="#132e65" stroke-width="1.5"></path><path d="M1258.38 515.83L1253.86 693.22" stroke="#132e65" stroke-width="1.5"></path><path d="M1253.86 693.22L1253.86 693.22" stroke="#132e65" stroke-width="1.5"></path><path d="M1253.86 693.22L1431.47 706.07" stroke="#132e65" stroke-width="1.5"></path><path d="M1253.86 693.22L1409.1 527.65" stroke="#132e65" stroke-width="1.5"></path><path d="M1253.86 693.22L973.82 675.87" stroke="#132e65" stroke-width="1.5"></path><path d="M1424.68 -73.98L1424.68 -73.98" stroke="#132e65" stroke-width="1.5"></path><path d="M1424.68 -73.98L1549.14 -61.88" stroke="#132e65" stroke-width="1.5"></path><path d="M1427.56 72.25L1427.56 72.25" stroke="#132e65" stroke-width="1.5"></path><path d="M1427.56 72.25L1391.75 195.27" stroke="#132e65" stroke-width="1.5"></path><path d="M1427.56 72.25L1424.68 -73.98" stroke="#132e65" stroke-width="1.5"></path><path d="M1427.56 72.25L1549.14 -61.88" stroke="#132e65" stroke-width="1.5"></path><path d="M1427.56 72.25L1609.5 54.85" stroke="#132e65" stroke-width="1.5"></path><path d="M1391.75 195.27L1391.75 195.27" stroke="#132e65" stroke-width="1.5"></path><path d="M1409.1 527.65L1409.1 527.65" stroke="#132e65" stroke-width="1.5"></path><path d="M1409.1 527.65L1543.71 528.54" stroke="#132e65" stroke-width="1.5"></path><path d="M1409.1 527.65L1431.47 706.07" stroke="#132e65" stroke-width="1.5"></path><path d="M1409.1 527.65L1602.06 705.79" stroke="#132e65" stroke-width="1.5"></path><path d="M1431.47 706.07L1431.47 706.07" stroke="#132e65" stroke-width="1.5"></path><path d="M1431.47 706.07L1602.06 705.79" stroke="#132e65" stroke-width="1.5"></path><path d="M1549.14 -61.88L1549.14 -61.88" stroke="#132e65" stroke-width="1.5"></path><path d="M1549.14 -61.88L1609.5 54.85" stroke="#132e65" stroke-width="1.5"></path><path d="M1549.14 -61.88L1285.82 -62.74" stroke="#132e65" stroke-width="1.5"></path><path d="M1549.14 -61.88L1301.6 56.21" stroke="#132e65" stroke-width="1.5"></path><path d="M1609.5 54.85L1609.5 54.85" stroke="#132e65" stroke-width="1.5"></path><path d="M1609.5 54.85L1424.68 -73.98" stroke="#132e65" stroke-width="1.5"></path><path d="M1609.5 54.85L1391.75 195.27" stroke="#132e65" stroke-width="1.5"></path><path d="M1609.5 54.85L1301.6 56.21" stroke="#132e65" stroke-width="1.5"></path><path d="M1543.71 528.54L1543.71 528.54" stroke="#132e65" stroke-width="1.5"></path><path d="M1543.71 528.54L1602.06 705.79" stroke="#132e65" stroke-width="1.5"></path><path d="M1543.71 528.54L1431.47 706.07" stroke="#132e65" stroke-width="1.5"></path><path d="M1602.06 705.79L1602.06 705.79" stroke="#132e65" stroke-width="1.5"></path><circle r="5" cx="-107.81" cy="371.75" fill="#132e65"></circle><circle r="5" cx="-82.43" cy="501.72" fill="#132e65"></circle><circle r="5" cx="-64.58" cy="640.79" fill="#132e65"></circle><circle r="5" cx="100.25" cy="351.38" fill="#132e65"></circle><circle r="5" cx="98.02" cy="697.85" fill="#132e65"></circle><circle r="5" cx="210.22" cy="401.91" fill="#132e65"></circle><circle r="5" cx="223.99" cy="555.84" fill="#132e65"></circle><circle r="5" cx="207.82" cy="637.91" fill="#132e65"></circle><circle r="5" cx="351.62" cy="406.4" fill="#132e65"></circle><circle r="5" cx="338.85" cy="515.48" fill="#132e65"></circle><circle r="5" cx="364.56" cy="655.58" fill="#132e65"></circle><circle r="5" cx="534.03" cy="406.3" fill="#132e65"></circle><circle r="5" cx="521.9" cy="490.46" fill="#132e65"></circle><circle r="5" cx="505.48" cy="659.99" fill="#132e65"></circle><circle r="5" cx="648.35" cy="399.23" fill="#132e65"></circle><circle r="5" cx="650.54" cy="550.15" fill="#132e65"></circle><circle r="5" cx="678" cy="648.39" fill="#132e65"></circle><circle r="5" cx="789.03" cy="240.37" fill="#132e65"></circle><circle r="5" cx="818.55" cy="390.66" fill="#132e65"></circle><circle r="5" cx="803.44" cy="546" fill="#132e65"></circle><circle r="5" cx="842.19" cy="694.39" fill="#132e65"></circle><circle r="5" cx="991.42" cy="-102.53" fill="#132e65"></circle><circle r="5" cx="978.81" cy="255.23" fill="#132e65"></circle><circle r="5" cx="987.79" cy="337.76" fill="#132e65"></circle><circle r="5" cx="973.82" cy="675.87" fill="#132e65"></circle><circle r="5" cx="1129.98" cy="-96.58" fill="#132e65"></circle><circle r="5" cx="1101.74" cy="196.78" fill="#132e65"></circle><circle r="5" cx="1093.11" cy="347.32" fill="#132e65"></circle><circle r="5" cx="1132.29" cy="510.43" fill="#132e65"></circle><circle r="5" cx="1106.4" cy="685" fill="#132e65"></circle><circle r="5" cx="1285.82" cy="-62.74" fill="#132e65"></circle><circle r="5" cx="1301.6" cy="56.21" fill="#132e65"></circle><circle r="5" cx="1288.86" cy="225.58" fill="#132e65"></circle><circle r="5" cx="1301.16" cy="409.58" fill="#132e65"></circle><circle r="5" cx="1258.38" cy="515.83" fill="#132e65"></circle><circle r="5" cx="1253.86" cy="693.22" fill="#132e65"></circle><circle r="5" cx="1424.68" cy="-73.98" fill="#132e65"></circle><circle r="5" cx="1427.56" cy="72.25" fill="#132e65"></circle><circle r="5" cx="1391.75" cy="195.27" fill="#132e65"></circle><circle r="5" cx="1409.1" cy="527.65" fill="#132e65"></circle><circle r="5" cx="1431.47" cy="706.07" fill="#132e65"></circle><circle r="5" cx="1549.14" cy="-61.88" fill="#132e65"></circle><circle r="5" cx="1609.5" cy="54.85" fill="#132e65"></circle><circle r="5" cx="1543.71" cy="528.54" fill="#132e65"></circle><circle r="5" cx="1602.06" cy="705.79" fill="#132e65"></circle><path d="M-45.57 530.76L-45.57 530.76" stroke="hsl(228.5, 77.2%, 51.5%)" stroke-width="1.5"></path><path d="M-45.57 530.76L-87.69 643.48" stroke="hsl(228.5, 77.2%, 51.5%)" stroke-width="1.5"></path><path d="M-45.57 530.76L96.29 527.48" stroke="hsl(228.5, 77.2%, 51.5%)" stroke-width="1.5"></path><path d="M-45.57 530.76L59.27 675.19" stroke="hsl(228.5, 77.2%, 51.5%)" stroke-width="1.5"></path><path d="M-45.57 530.76L193.8 495.58" stroke="hsl(228.5, 77.2%, 51.5%)" stroke-width="1.5"></path><path d="M-45.57 530.76L231.55 674.58" stroke="hsl(228.5, 77.2%, 51.5%)" stroke-width="1.5"></path><path d="M231.55 674.58L231.55 674.58" stroke="hsl(228.5, 77.2%, 51.5%)" stroke-width="1.5"></path><path d="M231.55 674.58L353.98 560.82" stroke="hsl(228.5, 77.2%, 51.5%)" stroke-width="1.5"></path><path d="M231.55 674.58L59.27 675.19" stroke="hsl(228.5, 77.2%, 51.5%)" stroke-width="1.5"></path><path d="M231.55 674.58L193.8 495.58" stroke="hsl(228.5, 77.2%, 51.5%)" stroke-width="1.5"></path><path d="M231.55 674.58L96.29 527.48" stroke="hsl(228.5, 77.2%, 51.5%)" stroke-width="1.5"></path><path d="M231.55 674.58L538.53 697.08" stroke="hsl(228.5, 77.2%, 51.5%)" stroke-width="1.5"></path><path d="M353.98 560.82L353.98 560.82" stroke="hsl(228.5, 77.2%, 51.5%)" stroke-width="1.5"></path><path d="M353.98 560.82L501.64 519.1" stroke="hsl(228.5, 77.2%, 51.5%)" stroke-width="1.5"></path><path d="M353.98 560.82L193.8 495.58" stroke="hsl(228.5, 77.2%, 51.5%)" stroke-width="1.5"></path><path d="M353.98 560.82L538.53 697.08" stroke="hsl(228.5, 77.2%, 51.5%)" stroke-width="1.5"></path><path d="M944.67 534.72L944.67 534.72" stroke="hsl(228.5, 77.2%, 51.5%)" stroke-width="1.5"></path><path d="M944.67 534.72L947.7 403.52" stroke="hsl(228.5, 77.2%, 51.5%)" stroke-width="1.5"></path><path d="M944.67 534.72L980.55 674.5" stroke="hsl(228.5, 77.2%, 51.5%)" stroke-width="1.5"></path><path d="M1151.77 361.08L1151.77 361.08" stroke="hsl(228.5, 77.2%, 51.5%)" stroke-width="1.5"></path><path d="M1151.77 361.08L1242.27 412.15" stroke="hsl(228.5, 77.2%, 51.5%)" stroke-width="1.5"></path><path d="M1151.77 361.08L1148.8 232.72" stroke="hsl(228.5, 77.2%, 51.5%)" stroke-width="1.5"></path><path d="M1397.55 218.55L1397.55 218.55" stroke="hsl(228.5, 77.2%, 51.5%)" stroke-width="1.5"></path><path d="M1397.55 218.55L1305.37 200.82" stroke="hsl(228.5, 77.2%, 51.5%)" stroke-width="1.5"></path><path d="M1397.55 218.55L1538.64 187.91" stroke="hsl(228.5, 77.2%, 51.5%)" stroke-width="1.5"></path><path d="M1584.27 404.96L1584.27 404.96" stroke="hsl(228.5, 77.2%, 51.5%)" stroke-width="1.5"></path><path d="M1584.27 404.96L1540.92 498.85" stroke="hsl(228.5, 77.2%, 51.5%)" stroke-width="1.5"></path><path d="M-87.69 643.48L-87.69 643.48" stroke="hsl(228.5, 77.2%, 51.5%)" stroke-width="1.5"></path><path d="M-87.69 643.48L59.27 675.19" stroke="hsl(228.5, 77.2%, 51.5%)" stroke-width="1.5"></path><path d="M-87.69 643.48L96.29 527.48" stroke="hsl(228.5, 77.2%, 51.5%)" stroke-width="1.5"></path><path d="M-87.69 643.48L193.8 495.58" stroke="hsl(228.5, 77.2%, 51.5%)" stroke-width="1.5"></path><path d="M-87.69 643.48L231.55 674.58" stroke="hsl(228.5, 77.2%, 51.5%)" stroke-width="1.5"></path><path d="M96.29 527.48L96.29 527.48" stroke="hsl(228.5, 77.2%, 51.5%)" stroke-width="1.5"></path><path d="M96.29 527.48L193.8 495.58" stroke="hsl(228.5, 77.2%, 51.5%)" stroke-width="1.5"></path><path d="M96.29 527.48L59.27 675.19" stroke="hsl(228.5, 77.2%, 51.5%)" stroke-width="1.5"></path><path d="M59.27 675.19L59.27 675.19" stroke="hsl(228.5, 77.2%, 51.5%)" stroke-width="1.5"></path><path d="M59.27 675.19L193.8 495.58" stroke="hsl(228.5, 77.2%, 51.5%)" stroke-width="1.5"></path><path d="M193.8 495.58L193.8 495.58" stroke="hsl(228.5, 77.2%, 51.5%)" stroke-width="1.5"></path><path d="M501.64 519.1L501.64 519.1" stroke="hsl(228.5, 77.2%, 51.5%)" stroke-width="1.5"></path><path d="M501.64 519.1L538.53 697.08" stroke="hsl(228.5, 77.2%, 51.5%)" stroke-width="1.5"></path><path d="M501.64 519.1L700.77 506.73" stroke="hsl(228.5, 77.2%, 51.5%)" stroke-width="1.5"></path><path d="M538.53 697.08L538.53 697.08" stroke="hsl(228.5, 77.2%, 51.5%)" stroke-width="1.5"></path><path d="M538.53 697.08L665.89 688.79" stroke="hsl(228.5, 77.2%, 51.5%)" stroke-width="1.5"></path><path d="M700.77 506.73L700.77 506.73" stroke="hsl(228.5, 77.2%, 51.5%)" stroke-width="1.5"></path><path d="M700.77 506.73L790.04 528.82" stroke="hsl(228.5, 77.2%, 51.5%)" stroke-width="1.5"></path><path d="M665.89 688.79L665.89 688.79" stroke="hsl(228.5, 77.2%, 51.5%)" stroke-width="1.5"></path><path d="M665.89 688.79L700.77 506.73" stroke="hsl(228.5, 77.2%, 51.5%)" stroke-width="1.5"></path><path d="M665.89 688.79L854.2 694.71" stroke="hsl(228.5, 77.2%, 51.5%)" stroke-width="1.5"></path><path d="M665.89 688.79L790.04 528.82" stroke="hsl(228.5, 77.2%, 51.5%)" stroke-width="1.5"></path><path d="M821.94 366.97L821.94 366.97" stroke="hsl(228.5, 77.2%, 51.5%)" stroke-width="1.5"></path><path d="M821.94 366.97L947.7 403.52" stroke="hsl(228.5, 77.2%, 51.5%)" stroke-width="1.5"></path><path d="M821.94 366.97L790.04 528.82" stroke="hsl(228.5, 77.2%, 51.5%)" stroke-width="1.5"></path><path d="M790.04 528.82L790.04 528.82" stroke="hsl(228.5, 77.2%, 51.5%)" stroke-width="1.5"></path><path d="M790.04 528.82L944.67 534.72" stroke="hsl(228.5, 77.2%, 51.5%)" stroke-width="1.5"></path><path d="M790.04 528.82L854.2 694.71" stroke="hsl(228.5, 77.2%, 51.5%)" stroke-width="1.5"></path><path d="M854.2 694.71L854.2 694.71" stroke="hsl(228.5, 77.2%, 51.5%)" stroke-width="1.5"></path><path d="M854.2 694.71L980.55 674.5" stroke="hsl(228.5, 77.2%, 51.5%)" stroke-width="1.5"></path><path d="M854.2 694.71L944.67 534.72" stroke="hsl(228.5, 77.2%, 51.5%)" stroke-width="1.5"></path><path d="M854.2 694.71L700.77 506.73" stroke="hsl(228.5, 77.2%, 51.5%)" stroke-width="1.5"></path><path d="M854.2 694.71L1155.77 682.08" stroke="hsl(228.5, 77.2%, 51.5%)" stroke-width="1.5"></path><path d="M947.7 403.52L947.7 403.52" stroke="hsl(228.5, 77.2%, 51.5%)" stroke-width="1.5"></path><path d="M947.7 403.52L790.04 528.82" stroke="hsl(228.5, 77.2%, 51.5%)" stroke-width="1.5"></path><path d="M980.55 674.5L980.55 674.5" stroke="hsl(228.5, 77.2%, 51.5%)" stroke-width="1.5"></path><path d="M980.55 674.5L1155.77 682.08" stroke="hsl(228.5, 77.2%, 51.5%)" stroke-width="1.5"></path><path d="M980.55 674.5L1145.64 509.71" stroke="hsl(228.5, 77.2%, 51.5%)" stroke-width="1.5"></path><path d="M1148.8 232.72L1148.8 232.72" stroke="hsl(228.5, 77.2%, 51.5%)" stroke-width="1.5"></path><path d="M1148.8 232.72L1305.37 200.82" stroke="hsl(228.5, 77.2%, 51.5%)" stroke-width="1.5"></path><path d="M1148.8 232.72L1242.27 412.15" stroke="hsl(228.5, 77.2%, 51.5%)" stroke-width="1.5"></path><path d="M1148.8 232.72L1271.85 57.45" stroke="hsl(228.5, 77.2%, 51.5%)" stroke-width="1.5"></path><path d="M1145.64 509.71L1145.64 509.71" stroke="hsl(228.5, 77.2%, 51.5%)" stroke-width="1.5"></path><path d="M1145.64 509.71L1242.27 412.15" stroke="hsl(228.5, 77.2%, 51.5%)" stroke-width="1.5"></path><path d="M1145.64 509.71L1151.77 361.08" stroke="hsl(228.5, 77.2%, 51.5%)" stroke-width="1.5"></path><path d="M1145.64 509.71L1302.56 528.78" stroke="hsl(228.5, 77.2%, 51.5%)" stroke-width="1.5"></path><path d="M1145.64 509.71L1155.77 682.08" stroke="hsl(228.5, 77.2%, 51.5%)" stroke-width="1.5"></path><path d="M1145.64 509.71L944.67 534.72" stroke="hsl(228.5, 77.2%, 51.5%)" stroke-width="1.5"></path><path d="M1145.64 509.71L947.7 403.52" stroke="hsl(228.5, 77.2%, 51.5%)" stroke-width="1.5"></path><path d="M1155.77 682.08L1155.77 682.08" stroke="hsl(228.5, 77.2%, 51.5%)" stroke-width="1.5"></path><path d="M1155.77 682.08L1302.56 528.78" stroke="hsl(228.5, 77.2%, 51.5%)" stroke-width="1.5"></path><path d="M1155.77 682.08L944.67 534.72" stroke="hsl(228.5, 77.2%, 51.5%)" stroke-width="1.5"></path><path d="M1278.96 -105.22L1278.96 -105.22" stroke="hsl(228.5, 77.2%, 51.5%)" stroke-width="1.5"></path><path d="M1278.96 -105.22L1271.85 57.45" stroke="hsl(228.5, 77.2%, 51.5%)" stroke-width="1.5"></path><path d="M1278.96 -105.22L1450.76 -111.47" stroke="hsl(228.5, 77.2%, 51.5%)" stroke-width="1.5"></path><path d="M1278.96 -105.22L1421.09 47.8" stroke="hsl(228.5, 77.2%, 51.5%)" stroke-width="1.5"></path><path d="M1278.96 -105.22L1551.37 -109.09" stroke="hsl(228.5, 77.2%, 51.5%)" stroke-width="1.5"></path><path d="M1278.96 -105.22L1305.37 200.82" stroke="hsl(228.5, 77.2%, 51.5%)" stroke-width="1.5"></path><path d="M1271.85 57.45L1271.85 57.45" stroke="hsl(228.5, 77.2%, 51.5%)" stroke-width="1.5"></path><path d="M1271.85 57.45L1305.37 200.82" stroke="hsl(228.5, 77.2%, 51.5%)" stroke-width="1.5"></path><path d="M1271.85 57.45L1421.09 47.8" stroke="hsl(228.5, 77.2%, 51.5%)" stroke-width="1.5"></path><path d="M1271.85 57.45L1397.55 218.55" stroke="hsl(228.5, 77.2%, 51.5%)" stroke-width="1.5"></path><path d="M1305.37 200.82L1305.37 200.82" stroke="hsl(228.5, 77.2%, 51.5%)" stroke-width="1.5"></path><path d="M1242.27 412.15L1242.27 412.15" stroke="hsl(228.5, 77.2%, 51.5%)" stroke-width="1.5"></path><path d="M1242.27 412.15L1302.56 528.78" stroke="hsl(228.5, 77.2%, 51.5%)" stroke-width="1.5"></path><path d="M1242.27 412.15L1411.1 409.58" stroke="hsl(228.5, 77.2%, 51.5%)" stroke-width="1.5"></path><path d="M1242.27 412.15L1414.19 507.06" stroke="hsl(228.5, 77.2%, 51.5%)" stroke-width="1.5"></path><path d="M1302.56 528.78L1302.56 528.78" stroke="hsl(228.5, 77.2%, 51.5%)" stroke-width="1.5"></path><path d="M1302.56 528.78L1414.19 507.06" stroke="hsl(228.5, 77.2%, 51.5%)" stroke-width="1.5"></path><path d="M1450.76 -111.47L1450.76 -111.47" stroke="hsl(228.5, 77.2%, 51.5%)" stroke-width="1.5"></path><path d="M1450.76 -111.47L1551.37 -109.09" stroke="hsl(228.5, 77.2%, 51.5%)" stroke-width="1.5"></path><path d="M1450.76 -111.47L1421.09 47.8" stroke="hsl(228.5, 77.2%, 51.5%)" stroke-width="1.5"></path><path d="M1421.09 47.8L1421.09 47.8" stroke="hsl(228.5, 77.2%, 51.5%)" stroke-width="1.5"></path><path d="M1411.1 409.58L1411.1 409.58" stroke="hsl(228.5, 77.2%, 51.5%)" stroke-width="1.5"></path><path d="M1411.1 409.58L1414.19 507.06" stroke="hsl(228.5, 77.2%, 51.5%)" stroke-width="1.5"></path><path d="M1411.1 409.58L1540.92 498.85" stroke="hsl(228.5, 77.2%, 51.5%)" stroke-width="1.5"></path><path d="M1411.1 409.58L1302.56 528.78" stroke="hsl(228.5, 77.2%, 51.5%)" stroke-width="1.5"></path><path d="M1411.1 409.58L1584.27 404.96" stroke="hsl(228.5, 77.2%, 51.5%)" stroke-width="1.5"></path><path d="M1414.19 507.06L1414.19 507.06" stroke="hsl(228.5, 77.2%, 51.5%)" stroke-width="1.5"></path><path d="M1414.19 507.06L1540.92 498.85" stroke="hsl(228.5, 77.2%, 51.5%)" stroke-width="1.5"></path><path d="M1419.73 650.09L1419.73 650.09" stroke="hsl(228.5, 77.2%, 51.5%)" stroke-width="1.5"></path><path d="M1419.73 650.09L1414.19 507.06" stroke="hsl(228.5, 77.2%, 51.5%)" stroke-width="1.5"></path><path d="M1419.73 650.09L1302.56 528.78" stroke="hsl(228.5, 77.2%, 51.5%)" stroke-width="1.5"></path><path d="M1419.73 650.09L1540.92 498.85" stroke="hsl(228.5, 77.2%, 51.5%)" stroke-width="1.5"></path><path d="M1419.73 650.09L1411.1 409.58" stroke="hsl(228.5, 77.2%, 51.5%)" stroke-width="1.5"></path><path d="M1551.37 -109.09L1551.37 -109.09" stroke="hsl(228.5, 77.2%, 51.5%)" stroke-width="1.5"></path><path d="M1551.37 -109.09L1421.09 47.8" stroke="hsl(228.5, 77.2%, 51.5%)" stroke-width="1.5"></path><path d="M1551.37 -109.09L1538.64 187.91" stroke="hsl(228.5, 77.2%, 51.5%)" stroke-width="1.5"></path><path d="M1538.64 187.91L1538.64 187.91" stroke="hsl(228.5, 77.2%, 51.5%)" stroke-width="1.5"></path><path d="M1538.64 187.91L1421.09 47.8" stroke="hsl(228.5, 77.2%, 51.5%)" stroke-width="1.5"></path><path d="M1538.64 187.91L1584.27 404.96" stroke="hsl(228.5, 77.2%, 51.5%)" stroke-width="1.5"></path><path d="M1538.64 187.91L1305.37 200.82" stroke="hsl(228.5, 77.2%, 51.5%)" stroke-width="1.5"></path><path d="M1538.64 187.91L1411.1 409.58" stroke="hsl(228.5, 77.2%, 51.5%)" stroke-width="1.5"></path><path d="M1540.92 498.85L1540.92 498.85" stroke="hsl(228.5, 77.2%, 51.5%)" stroke-width="1.5"></path><circle r="25" cx="-45.57" cy="530.76" fill="url(&quot;#SvgjsRadialGradient1011&quot;)"></circle><circle r="25" cx="231.55" cy="674.58" fill="url(&quot;#SvgjsRadialGradient1011&quot;)"></circle><circle r="25" cx="353.98" cy="560.82" fill="url(&quot;#SvgjsRadialGradient1011&quot;)"></circle><circle r="25" cx="944.67" cy="534.72" fill="url(&quot;#SvgjsRadialGradient1011&quot;)"></circle><circle r="25" cx="1151.77" cy="361.08" fill="url(&quot;#SvgjsRadialGradient1011&quot;)"></circle><circle r="25" cx="1397.55" cy="218.55" fill="url(&quot;#SvgjsRadialGradient1011&quot;)"></circle><circle r="25" cx="1584.27" cy="404.96" fill="url(&quot;#SvgjsRadialGradient1011&quot;)"></circle><circle r="5" cx="-87.69" cy="643.48" fill="#8b9ad9"></circle><circle r="5" cx="96.29" cy="527.48" fill="#8b9ad9"></circle><circle r="5" cx="59.27" cy="675.19" fill="#8b9ad9"></circle><circle r="5" cx="193.8" cy="495.58" fill="#8b9ad9"></circle><circle r="5" cx="501.64" cy="519.1" fill="#8b9ad9"></circle><circle r="5" cx="538.53" cy="697.08" fill="#8b9ad9"></circle><circle r="5" cx="700.77" cy="506.73" fill="#8b9ad9"></circle><circle r="5" cx="665.89" cy="688.79" fill="#8b9ad9"></circle><circle r="5" cx="821.94" cy="366.97" fill="#8b9ad9"></circle><circle r="5" cx="790.04" cy="528.82" fill="#8b9ad9"></circle><circle r="5" cx="854.2" cy="694.71" fill="#8b9ad9"></circle><circle r="5" cx="947.7" cy="403.52" fill="#8b9ad9"></circle><circle r="5" cx="980.55" cy="674.5" fill="#8b9ad9"></circle><circle r="5" cx="1148.8" cy="232.72" fill="#8b9ad9"></circle><circle r="5" cx="1145.64" cy="509.71" fill="#8b9ad9"></circle><circle r="5" cx="1155.77" cy="682.08" fill="#8b9ad9"></circle><circle r="5" cx="1278.96" cy="-105.22" fill="#8b9ad9"></circle><circle r="5" cx="1271.85" cy="57.45" fill="#8b9ad9"></circle><circle r="5" cx="1305.37" cy="200.82" fill="#8b9ad9"></circle><circle r="5" cx="1242.27" cy="412.15" fill="#8b9ad9"></circle><circle r="5" cx="1302.56" cy="528.78" fill="#8b9ad9"></circle><circle r="5" cx="1450.76" cy="-111.47" fill="#8b9ad9"></circle><circle r="5" cx="1421.09" cy="47.8" fill="#8b9ad9"></circle><circle r="5" cx="1411.1" cy="409.58" fill="#8b9ad9"></circle><circle r="5" cx="1414.19" cy="507.06" fill="#8b9ad9"></circle><circle r="5" cx="1419.73" cy="650.09" fill="#8b9ad9"></circle><circle r="5" cx="1551.37" cy="-109.09" fill="#8b9ad9"></circle><circle r="5" cx="1538.64" cy="187.91" fill="#8b9ad9"></circle><circle r="5" cx="1540.92" cy="498.85" fill="#8b9ad9"></circle></g><defs><mask id="SvgjsMask1010"><rect width="1440" height="560" fill="#ffffff"></rect></mask><radialGradient id="SvgjsRadialGradient1011"><stop stop-color="#ffffff" offset="0.1"></stop><stop stop-color="#1735b3" offset="0.2"></stop><stop stop-color="rgba(23, 53, 179, 0)" offset="1"></stop></radialGradient></defs></svg>