<svg xmlns="http://www.w3.org/2000/svg" version="1.1" xmlns:xlink="http://www.w3.org/1999/xlink" xmlns:svgjs="http://svgjs.dev/svgjs" width="1280" height="720" preserveAspectRatio="none" viewBox="0 0 1280 720"><g mask="url(&quot;#SvgjsMask1022&quot;)" fill="none"><rect width="1280" height="720" x="0" y="0" fill="#0e2a47"></rect><path d="M-105.86 524.99L-105.86 524.99" stroke="#132e65" stroke-width="1.5"></path><path d="M-105.86 524.99L-94.23 649.93" stroke="#132e65" stroke-width="1.5"></path><path d="M-105.86 524.99L69.24 705.54" stroke="#132e65" stroke-width="1.5"></path><path d="M-105.86 524.99L-68.28 812.36" stroke="#132e65" stroke-width="1.5"></path><path d="M-105.86 524.99L202.54 540.64" stroke="#132e65" stroke-width="1.5"></path><path d="M-105.86 524.99L106.39 819.59" stroke="#132e65" stroke-width="1.5"></path><path d="M-94.23 649.93L-94.23 649.93" stroke="#132e65" stroke-width="1.5"></path><path d="M-94.23 649.93L-68.28 812.36" stroke="#132e65" stroke-width="1.5"></path><path d="M-94.23 649.93L69.24 705.54" stroke="#132e65" stroke-width="1.5"></path><path d="M-94.23 649.93L106.39 819.59" stroke="#132e65" stroke-width="1.5"></path><path d="M-94.23 649.93L202.54 540.64" stroke="#132e65" stroke-width="1.5"></path><path d="M-94.23 649.93L240.94 671.48" stroke="#132e65" stroke-width="1.5"></path><path d="M-68.28 812.36L-68.28 812.36" stroke="#132e65" stroke-width="1.5"></path><path d="M-68.28 812.36L69.24 705.54" stroke="#132e65" stroke-width="1.5"></path><path d="M-68.28 812.36L106.39 819.59" stroke="#132e65" stroke-width="1.5"></path><path d="M69.24 705.54L69.24 705.54" stroke="#132e65" stroke-width="1.5"></path><path d="M69.24 705.54L106.39 819.59" stroke="#132e65" stroke-width="1.5"></path><path d="M106.39 819.59L106.39 819.59" stroke="#132e65" stroke-width="1.5"></path><path d="M106.39 819.59L236.55 792.59" stroke="#132e65" stroke-width="1.5"></path><path d="M202.54 540.64L202.54 540.64" stroke="#132e65" stroke-width="1.5"></path><path d="M202.54 540.64L240.94 671.48" stroke="#132e65" stroke-width="1.5"></path><path d="M202.54 540.64L405.48 562.24" stroke="#132e65" stroke-width="1.5"></path><path d="M202.54 540.64L69.24 705.54" stroke="#132e65" stroke-width="1.5"></path><path d="M202.54 540.64L387.61 645.57" stroke="#132e65" stroke-width="1.5"></path><path d="M202.54 540.64L360.88 387.53" stroke="#132e65" stroke-width="1.5"></path><path d="M202.54 540.64L236.55 792.59" stroke="#132e65" stroke-width="1.5"></path><path d="M240.94 671.48L240.94 671.48" stroke="#132e65" stroke-width="1.5"></path><path d="M240.94 671.48L236.55 792.59" stroke="#132e65" stroke-width="1.5"></path><path d="M240.94 671.48L387.61 645.57" stroke="#132e65" stroke-width="1.5"></path><path d="M240.94 671.48L69.24 705.54" stroke="#132e65" stroke-width="1.5"></path><path d="M240.94 671.48L405.48 562.24" stroke="#132e65" stroke-width="1.5"></path><path d="M240.94 671.48L106.39 819.59" stroke="#132e65" stroke-width="1.5"></path><path d="M236.55 792.59L236.55 792.59" stroke="#132e65" stroke-width="1.5"></path><path d="M360.88 387.53L360.88 387.53" stroke="#132e65" stroke-width="1.5"></path><path d="M360.88 387.53L405.48 562.24" stroke="#132e65" stroke-width="1.5"></path><path d="M405.48 562.24L405.48 562.24" stroke="#132e65" stroke-width="1.5"></path><path d="M405.48 562.24L387.61 645.57" stroke="#132e65" stroke-width="1.5"></path><path d="M405.48 562.24L519.46 549.47" stroke="#132e65" stroke-width="1.5"></path><path d="M405.48 562.24L545.33 677.56" stroke="#132e65" stroke-width="1.5"></path><path d="M387.61 645.57L387.61 645.57" stroke="#132e65" stroke-width="1.5"></path><path d="M387.61 645.57L545.33 677.56" stroke="#132e65" stroke-width="1.5"></path><path d="M387.61 645.57L519.46 549.47" stroke="#132e65" stroke-width="1.5"></path><path d="M387.61 645.57L236.55 792.59" stroke="#132e65" stroke-width="1.5"></path><path d="M382.2 862.43L382.2 862.43" stroke="#132e65" stroke-width="1.5"></path><path d="M382.2 862.43L236.55 792.59" stroke="#132e65" stroke-width="1.5"></path><path d="M382.2 862.43L553.59 859.1" stroke="#132e65" stroke-width="1.5"></path><path d="M519.46 549.47L519.46 549.47" stroke="#132e65" stroke-width="1.5"></path><path d="M519.46 549.47L545.33 677.56" stroke="#132e65" stroke-width="1.5"></path><path d="M519.46 549.47L663.91 514.81" stroke="#132e65" stroke-width="1.5"></path><path d="M519.46 549.47L695.62 659.61" stroke="#132e65" stroke-width="1.5"></path><path d="M519.46 549.47L360.88 387.53" stroke="#132e65" stroke-width="1.5"></path><path d="M545.33 677.56L545.33 677.56" stroke="#132e65" stroke-width="1.5"></path><path d="M545.33 677.56L695.62 659.61" stroke="#132e65" stroke-width="1.5"></path><path d="M545.33 677.56L657.04 787.82" stroke="#132e65" stroke-width="1.5"></path><path d="M553.59 859.1L553.59 859.1" stroke="#132e65" stroke-width="1.5"></path><path d="M553.59 859.1L657.04 787.82" stroke="#132e65" stroke-width="1.5"></path><path d="M553.59 859.1L545.33 677.56" stroke="#132e65" stroke-width="1.5"></path><path d="M553.59 859.1L695.62 659.61" stroke="#132e65" stroke-width="1.5"></path><path d="M553.59 859.1L387.61 645.57" stroke="#132e65" stroke-width="1.5"></path><path d="M676.13 375.21L676.13 375.21" stroke="#132e65" stroke-width="1.5"></path><path d="M676.13 375.21L800.01 352.77" stroke="#132e65" stroke-width="1.5"></path><path d="M676.13 375.21L663.91 514.81" stroke="#132e65" stroke-width="1.5"></path><path d="M676.13 375.21L827.97 499.76" stroke="#132e65" stroke-width="1.5"></path><path d="M676.13 375.21L519.46 549.47" stroke="#132e65" stroke-width="1.5"></path><path d="M663.91 514.81L663.91 514.81" stroke="#132e65" stroke-width="1.5"></path><path d="M695.62 659.61L695.62 659.61" stroke="#132e65" stroke-width="1.5"></path><path d="M695.62 659.61L802.44 679.75" stroke="#132e65" stroke-width="1.5"></path><path d="M695.62 659.61L657.04 787.82" stroke="#132e65" stroke-width="1.5"></path><path d="M695.62 659.61L663.91 514.81" stroke="#132e65" stroke-width="1.5"></path><path d="M695.62 659.61L827.97 499.76" stroke="#132e65" stroke-width="1.5"></path><path d="M657.04 787.82L657.04 787.82" stroke="#132e65" stroke-width="1.5"></path><path d="M657.04 787.82L802.44 679.75" stroke="#132e65" stroke-width="1.5"></path><path d="M657.04 787.82L842.15 862.33" stroke="#132e65" stroke-width="1.5"></path><path d="M657.04 787.82L663.91 514.81" stroke="#132e65" stroke-width="1.5"></path><path d="M818.95 -88.18L818.95 -88.18" stroke="#132e65" stroke-width="1.5"></path><path d="M818.95 -88.18L982.26 -111.29" stroke="#132e65" stroke-width="1.5"></path><path d="M818.95 -88.18L808.85 89.05" stroke="#132e65" stroke-width="1.5"></path><path d="M818.95 -88.18L952.63 87.73" stroke="#132e65" stroke-width="1.5"></path><path d="M808.85 89.05L808.85 89.05" stroke="#132e65" stroke-width="1.5"></path><path d="M808.85 89.05L859.11 192.71" stroke="#132e65" stroke-width="1.5"></path><path d="M808.85 89.05L952.63 87.73" stroke="#132e65" stroke-width="1.5"></path><path d="M808.85 89.05L944.61 235.97" stroke="#132e65" stroke-width="1.5"></path><path d="M808.85 89.05L800.01 352.77" stroke="#132e65" stroke-width="1.5"></path><path d="M859.11 192.71L859.11 192.71" stroke="#132e65" stroke-width="1.5"></path><path d="M859.11 192.71L944.61 235.97" stroke="#132e65" stroke-width="1.5"></path><path d="M859.11 192.71L952.63 87.73" stroke="#132e65" stroke-width="1.5"></path><path d="M800.01 352.77L800.01 352.77" stroke="#132e65" stroke-width="1.5"></path><path d="M800.01 352.77L827.97 499.76" stroke="#132e65" stroke-width="1.5"></path><path d="M800.01 352.77L960.58 391.94" stroke="#132e65" stroke-width="1.5"></path><path d="M800.01 352.77L859.11 192.71" stroke="#132e65" stroke-width="1.5"></path><path d="M827.97 499.76L827.97 499.76" stroke="#132e65" stroke-width="1.5"></path><path d="M827.97 499.76L952.32 494.57" stroke="#132e65" stroke-width="1.5"></path><path d="M827.97 499.76L663.91 514.81" stroke="#132e65" stroke-width="1.5"></path><path d="M802.44 679.75L802.44 679.75" stroke="#132e65" stroke-width="1.5"></path><path d="M802.44 679.75L827.97 499.76" stroke="#132e65" stroke-width="1.5"></path><path d="M842.15 862.33L842.15 862.33" stroke="#132e65" stroke-width="1.5"></path><path d="M842.15 862.33L957.93 862.47" stroke="#132e65" stroke-width="1.5"></path><path d="M842.15 862.33L802.44 679.75" stroke="#132e65" stroke-width="1.5"></path><path d="M842.15 862.33L695.62 659.61" stroke="#132e65" stroke-width="1.5"></path><path d="M842.15 862.33L1091.72 818.95" stroke="#132e65" stroke-width="1.5"></path><path d="M982.26 -111.29L982.26 -111.29" stroke="#132e65" stroke-width="1.5"></path><path d="M982.26 -111.29L1118.41 -37.52" stroke="#132e65" stroke-width="1.5"></path><path d="M982.26 -111.29L952.63 87.73" stroke="#132e65" stroke-width="1.5"></path><path d="M952.63 87.73L952.63 87.73" stroke="#132e65" stroke-width="1.5"></path><path d="M944.61 235.97L944.61 235.97" stroke="#132e65" stroke-width="1.5"></path><path d="M944.61 235.97L952.63 87.73" stroke="#132e65" stroke-width="1.5"></path><path d="M944.61 235.97L960.58 391.94" stroke="#132e65" stroke-width="1.5"></path><path d="M944.61 235.97L1124.05 247.11" stroke="#132e65" stroke-width="1.5"></path><path d="M944.61 235.97L800.01 352.77" stroke="#132e65" stroke-width="1.5"></path><path d="M960.58 391.94L960.58 391.94" stroke="#132e65" stroke-width="1.5"></path><path d="M960.58 391.94L952.32 494.57" stroke="#132e65" stroke-width="1.5"></path><path d="M952.32 494.57L952.32 494.57" stroke="#132e65" stroke-width="1.5"></path><path d="M952.32 494.57L1148.81 546.45" stroke="#132e65" stroke-width="1.5"></path><path d="M952.32 494.57L800.01 352.77" stroke="#132e65" stroke-width="1.5"></path><path d="M952.32 494.57L1135.05 378.5" stroke="#132e65" stroke-width="1.5"></path><path d="M952.32 494.57L802.44 679.75" stroke="#132e65" stroke-width="1.5"></path><path d="M957.93 862.47L957.93 862.47" stroke="#132e65" stroke-width="1.5"></path><path d="M957.93 862.47L1091.72 818.95" stroke="#132e65" stroke-width="1.5"></path><path d="M957.93 862.47L802.44 679.75" stroke="#132e65" stroke-width="1.5"></path><path d="M957.93 862.47L1133.75 688.1" stroke="#132e65" stroke-width="1.5"></path><path d="M1118.41 -37.52L1118.41 -37.52" stroke="#132e65" stroke-width="1.5"></path><path d="M1118.41 -37.52L1239.03 -56.1" stroke="#132e65" stroke-width="1.5"></path><path d="M1118.41 -37.52L1113.05 111.57" stroke="#132e65" stroke-width="1.5"></path><path d="M1118.41 -37.52L1280.83 40.45" stroke="#132e65" stroke-width="1.5"></path><path d="M1113.05 111.57L1113.05 111.57" stroke="#132e65" stroke-width="1.5"></path><path d="M1113.05 111.57L1124.05 247.11" stroke="#132e65" stroke-width="1.5"></path><path d="M1124.05 247.11L1124.05 247.11" stroke="#132e65" stroke-width="1.5"></path><path d="M1124.05 247.11L1135.05 378.5" stroke="#132e65" stroke-width="1.5"></path><path d="M1135.05 378.5L1135.05 378.5" stroke="#132e65" stroke-width="1.5"></path><path d="M1135.05 378.5L1148.81 546.45" stroke="#132e65" stroke-width="1.5"></path><path d="M1135.05 378.5L1308.05 358.7" stroke="#132e65" stroke-width="1.5"></path><path d="M1135.05 378.5L960.58 391.94" stroke="#132e65" stroke-width="1.5"></path><path d="M1148.81 546.45L1148.81 546.45" stroke="#132e65" stroke-width="1.5"></path><path d="M1148.81 546.45L1239.83 647.13" stroke="#132e65" stroke-width="1.5"></path><path d="M1148.81 546.45L1133.75 688.1" stroke="#132e65" stroke-width="1.5"></path><path d="M1148.81 546.45L1291.4 561.17" stroke="#132e65" stroke-width="1.5"></path><path d="M1148.81 546.45L960.58 391.94" stroke="#132e65" stroke-width="1.5"></path><path d="M1133.75 688.1L1133.75 688.1" stroke="#132e65" stroke-width="1.5"></path><path d="M1133.75 688.1L1239.83 647.13" stroke="#132e65" stroke-width="1.5"></path><path d="M1133.75 688.1L1091.72 818.95" stroke="#132e65" stroke-width="1.5"></path><path d="M1133.75 688.1L1239.13 815.44" stroke="#132e65" stroke-width="1.5"></path><path d="M1133.75 688.1L1291.4 561.17" stroke="#132e65" stroke-width="1.5"></path><path d="M1091.72 818.95L1091.72 818.95" stroke="#132e65" stroke-width="1.5"></path><path d="M1091.72 818.95L1239.13 815.44" stroke="#132e65" stroke-width="1.5"></path><path d="M1239.03 -56.1L1239.03 -56.1" stroke="#132e65" stroke-width="1.5"></path><path d="M1239.03 -56.1L1280.83 40.45" stroke="#132e65" stroke-width="1.5"></path><path d="M1239.03 -56.1L1447.03 -37.99" stroke="#132e65" stroke-width="1.5"></path><path d="M1280.83 40.45L1280.83 40.45" stroke="#132e65" stroke-width="1.5"></path><path d="M1280.83 40.45L1414.28 83.07" stroke="#132e65" stroke-width="1.5"></path><path d="M1280.83 40.45L1113.05 111.57" stroke="#132e65" stroke-width="1.5"></path><path d="M1280.83 40.45L1447.03 -37.99" stroke="#132e65" stroke-width="1.5"></path><path d="M1280.83 40.45L1299.21 233.88" stroke="#132e65" stroke-width="1.5"></path><path d="M1299.21 233.88L1299.21 233.88" stroke="#132e65" stroke-width="1.5"></path><path d="M1299.21 233.88L1308.05 358.7" stroke="#132e65" stroke-width="1.5"></path><path d="M1299.21 233.88L1433.66 256.21" stroke="#132e65" stroke-width="1.5"></path><path d="M1299.21 233.88L1124.05 247.11" stroke="#132e65" stroke-width="1.5"></path><path d="M1299.21 233.88L1414.28 83.07" stroke="#132e65" stroke-width="1.5"></path><path d="M1299.21 233.88L1438.68 367.87" stroke="#132e65" stroke-width="1.5"></path><path d="M1308.05 358.7L1308.05 358.7" stroke="#132e65" stroke-width="1.5"></path><path d="M1308.05 358.7L1438.68 367.87" stroke="#132e65" stroke-width="1.5"></path><path d="M1291.4 561.17L1291.4 561.17" stroke="#132e65" stroke-width="1.5"></path><path d="M1291.4 561.17L1239.83 647.13" stroke="#132e65" stroke-width="1.5"></path><path d="M1291.4 561.17L1404.46 524.14" stroke="#132e65" stroke-width="1.5"></path><path d="M1291.4 561.17L1409.26 685.64" stroke="#132e65" stroke-width="1.5"></path><path d="M1239.83 647.13L1239.83 647.13" stroke="#132e65" stroke-width="1.5"></path><path d="M1239.83 647.13L1239.13 815.44" stroke="#132e65" stroke-width="1.5"></path><path d="M1239.83 647.13L1409.26 685.64" stroke="#132e65" stroke-width="1.5"></path><path d="M1239.83 647.13L1404.46 524.14" stroke="#132e65" stroke-width="1.5"></path><path d="M1239.13 815.44L1239.13 815.44" stroke="#132e65" stroke-width="1.5"></path><path d="M1447.03 -37.99L1447.03 -37.99" stroke="#132e65" stroke-width="1.5"></path><path d="M1447.03 -37.99L1414.28 83.07" stroke="#132e65" stroke-width="1.5"></path><path d="M1447.03 -37.99L1433.66 256.21" stroke="#132e65" stroke-width="1.5"></path><path d="M1447.03 -37.99L1299.21 233.88" stroke="#132e65" stroke-width="1.5"></path><path d="M1447.03 -37.99L1118.41 -37.52" stroke="#132e65" stroke-width="1.5"></path><path d="M1414.28 83.07L1414.28 83.07" stroke="#132e65" stroke-width="1.5"></path><path d="M1433.66 256.21L1433.66 256.21" stroke="#132e65" stroke-width="1.5"></path><path d="M1433.66 256.21L1438.68 367.87" stroke="#132e65" stroke-width="1.5"></path><path d="M1433.66 256.21L1308.05 358.7" stroke="#132e65" stroke-width="1.5"></path><path d="M1433.66 256.21L1414.28 83.07" stroke="#132e65" stroke-width="1.5"></path><path d="M1433.66 256.21L1280.83 40.45" stroke="#132e65" stroke-width="1.5"></path><path d="M1433.66 256.21L1404.46 524.14" stroke="#132e65" stroke-width="1.5"></path><path d="M1438.68 367.87L1438.68 367.87" stroke="#132e65" stroke-width="1.5"></path><path d="M1404.46 524.14L1404.46 524.14" stroke="#132e65" stroke-width="1.5"></path><path d="M1404.46 524.14L1438.68 367.87" stroke="#132e65" stroke-width="1.5"></path><path d="M1409.26 685.64L1409.26 685.64" stroke="#132e65" stroke-width="1.5"></path><path d="M1409.26 685.64L1450.99 796.67" stroke="#132e65" stroke-width="1.5"></path><path d="M1409.26 685.64L1404.46 524.14" stroke="#132e65" stroke-width="1.5"></path><path d="M1409.26 685.64L1239.13 815.44" stroke="#132e65" stroke-width="1.5"></path><path d="M1409.26 685.64L1133.75 688.1" stroke="#132e65" stroke-width="1.5"></path><path d="M1450.99 796.67L1450.99 796.67" stroke="#132e65" stroke-width="1.5"></path><path d="M1450.99 796.67L1239.13 815.44" stroke="#132e65" stroke-width="1.5"></path><path d="M1450.99 796.67L1239.83 647.13" stroke="#132e65" stroke-width="1.5"></path><path d="M1450.99 796.67L1404.46 524.14" stroke="#132e65" stroke-width="1.5"></path><circle r="5" cx="-105.86" cy="524.99" fill="#132e65"></circle><circle r="5" cx="-94.23" cy="649.93" fill="#132e65"></circle><circle r="5" cx="-68.28" cy="812.36" fill="#132e65"></circle><circle r="5" cx="69.24" cy="705.54" fill="#132e65"></circle><circle r="5" cx="106.39" cy="819.59" fill="#132e65"></circle><circle r="5" cx="202.54" cy="540.64" fill="#132e65"></circle><circle r="5" cx="240.94" cy="671.48" fill="#132e65"></circle><circle r="5" cx="236.55" cy="792.59" fill="#132e65"></circle><circle r="5" cx="360.88" cy="387.53" fill="#132e65"></circle><circle r="5" cx="405.48" cy="562.24" fill="#132e65"></circle><circle r="5" cx="387.61" cy="645.57" fill="#132e65"></circle><circle r="5" cx="382.2" cy="862.43" fill="#132e65"></circle><circle r="5" cx="519.46" cy="549.47" fill="#132e65"></circle><circle r="5" cx="545.33" cy="677.56" fill="#132e65"></circle><circle r="5" cx="553.59" cy="859.1" fill="#132e65"></circle><circle r="5" cx="676.13" cy="375.21" fill="#132e65"></circle><circle r="5" cx="663.91" cy="514.81" fill="#132e65"></circle><circle r="5" cx="695.62" cy="659.61" fill="#132e65"></circle><circle r="5" cx="657.04" cy="787.82" fill="#132e65"></circle><circle r="5" cx="818.95" cy="-88.18" fill="#132e65"></circle><circle r="5" cx="808.85" cy="89.05" fill="#132e65"></circle><circle r="5" cx="859.11" cy="192.71" fill="#132e65"></circle><circle r="5" cx="800.01" cy="352.77" fill="#132e65"></circle><circle r="5" cx="827.97" cy="499.76" fill="#132e65"></circle><circle r="5" cx="802.44" cy="679.75" fill="#132e65"></circle><circle r="5" cx="842.15" cy="862.33" fill="#132e65"></circle><circle r="5" cx="982.26" cy="-111.29" fill="#132e65"></circle><circle r="5" cx="952.63" cy="87.73" fill="#132e65"></circle><circle r="5" cx="944.61" cy="235.97" fill="#132e65"></circle><circle r="5" cx="960.58" cy="391.94" fill="#132e65"></circle><circle r="5" cx="952.32" cy="494.57" fill="#132e65"></circle><circle r="5" cx="957.93" cy="862.47" fill="#132e65"></circle><circle r="5" cx="1118.41" cy="-37.52" fill="#132e65"></circle><circle r="5" cx="1113.05" cy="111.57" fill="#132e65"></circle><circle r="5" cx="1124.05" cy="247.11" fill="#132e65"></circle><circle r="5" cx="1135.05" cy="378.5" fill="#132e65"></circle><circle r="5" cx="1148.81" cy="546.45" fill="#132e65"></circle><circle r="5" cx="1133.75" cy="688.1" fill="#132e65"></circle><circle r="5" cx="1091.72" cy="818.95" fill="#132e65"></circle><circle r="5" cx="1239.03" cy="-56.1" fill="#132e65"></circle><circle r="5" cx="1280.83" cy="40.45" fill="#132e65"></circle><circle r="5" cx="1299.21" cy="233.88" fill="#132e65"></circle><circle r="5" cx="1308.05" cy="358.7" fill="#132e65"></circle><circle r="5" cx="1291.4" cy="561.17" fill="#132e65"></circle><circle r="5" cx="1239.83" cy="647.13" fill="#132e65"></circle><circle r="5" cx="1239.13" cy="815.44" fill="#132e65"></circle><circle r="5" cx="1447.03" cy="-37.99" fill="#132e65"></circle><circle r="5" cx="1414.28" cy="83.07" fill="#132e65"></circle><circle r="5" cx="1433.66" cy="256.21" fill="#132e65"></circle><circle r="5" cx="1438.68" cy="367.87" fill="#132e65"></circle><circle r="5" cx="1404.46" cy="524.14" fill="#132e65"></circle><circle r="5" cx="1409.26" cy="685.64" fill="#132e65"></circle><circle r="5" cx="1450.99" cy="796.67" fill="#132e65"></circle><path d="M392.7 661.8L392.7 661.8" stroke="hsl(228.5, 77.2%, 51.5%)" stroke-width="1.5"></path><path d="M392.7 661.8L409.35 541.13" stroke="hsl(228.5, 77.2%, 51.5%)" stroke-width="1.5"></path><path d="M647.67 517.92L647.67 517.92" stroke="hsl(228.5, 77.2%, 51.5%)" stroke-width="1.5"></path><path d="M647.67 517.92L494.83 512.76" stroke="hsl(228.5, 77.2%, 51.5%)" stroke-width="1.5"></path><path d="M647.67 517.92L703.77 672.29" stroke="hsl(228.5, 77.2%, 51.5%)" stroke-width="1.5"></path><path d="M647.67 517.92L812.97 501.99" stroke="hsl(228.5, 77.2%, 51.5%)" stroke-width="1.5"></path><path d="M647.67 517.92L557.71 667.14" stroke="hsl(228.5, 77.2%, 51.5%)" stroke-width="1.5"></path><path d="M647.67 517.92L825.01 406.1" stroke="hsl(228.5, 77.2%, 51.5%)" stroke-width="1.5"></path><path d="M858.38 681.48L858.38 681.48" stroke="hsl(228.5, 77.2%, 51.5%)" stroke-width="1.5"></path><path d="M858.38 681.48L810.07 798.95" stroke="hsl(228.5, 77.2%, 51.5%)" stroke-width="1.5"></path><path d="M858.38 681.48L1007.86 698.96" stroke="hsl(228.5, 77.2%, 51.5%)" stroke-width="1.5"></path><path d="M858.38 681.48L703.77 672.29" stroke="hsl(228.5, 77.2%, 51.5%)" stroke-width="1.5"></path><path d="M858.38 681.48L812.97 501.99" stroke="hsl(228.5, 77.2%, 51.5%)" stroke-width="1.5"></path><path d="M938.89 254.93L938.89 254.93" stroke="hsl(228.5, 77.2%, 51.5%)" stroke-width="1.5"></path><path d="M938.89 254.93L953.69 347.94" stroke="hsl(228.5, 77.2%, 51.5%)" stroke-width="1.5"></path><path d="M938.89 254.93L825.01 406.1" stroke="hsl(228.5, 77.2%, 51.5%)" stroke-width="1.5"></path><path d="M938.89 254.93L1155.53 248.65" stroke="hsl(228.5, 77.2%, 51.5%)" stroke-width="1.5"></path><path d="M938.89 254.93L1147.7 405.15" stroke="hsl(228.5, 77.2%, 51.5%)" stroke-width="1.5"></path><path d="M1006.65 846.19L1006.65 846.19" stroke="hsl(228.5, 77.2%, 51.5%)" stroke-width="1.5"></path><path d="M1006.65 846.19L1007.86 698.96" stroke="hsl(228.5, 77.2%, 51.5%)" stroke-width="1.5"></path><path d="M1006.65 846.19L1159.98 806.91" stroke="hsl(228.5, 77.2%, 51.5%)" stroke-width="1.5"></path><path d="M1006.65 846.19L1133.34 695.58" stroke="hsl(228.5, 77.2%, 51.5%)" stroke-width="1.5"></path><path d="M1006.65 846.19L810.07 798.95" stroke="hsl(228.5, 77.2%, 51.5%)" stroke-width="1.5"></path><path d="M1006.65 846.19L858.38 681.48" stroke="hsl(228.5, 77.2%, 51.5%)" stroke-width="1.5"></path><path d="M1273.6 387.75L1273.6 387.75" stroke="hsl(228.5, 77.2%, 51.5%)" stroke-width="1.5"></path><path d="M1273.6 387.75L1266.85 505.63" stroke="hsl(228.5, 77.2%, 51.5%)" stroke-width="1.5"></path><path d="M1273.6 387.75L1147.7 405.15" stroke="hsl(228.5, 77.2%, 51.5%)" stroke-width="1.5"></path><path d="M1273.6 387.75L1293.17 225.47" stroke="hsl(228.5, 77.2%, 51.5%)" stroke-width="1.5"></path><path d="M1273.6 387.75L1126.84 493.82" stroke="hsl(228.5, 77.2%, 51.5%)" stroke-width="1.5"></path><path d="M1273.6 387.75L1454.92 399.82" stroke="hsl(228.5, 77.2%, 51.5%)" stroke-width="1.5"></path><path d="M1273.6 387.75L1155.53 248.65" stroke="hsl(228.5, 77.2%, 51.5%)" stroke-width="1.5"></path><path d="M1266.85 505.63L1266.85 505.63" stroke="hsl(228.5, 77.2%, 51.5%)" stroke-width="1.5"></path><path d="M1266.85 505.63L1126.84 493.82" stroke="hsl(228.5, 77.2%, 51.5%)" stroke-width="1.5"></path><path d="M1426.58 225.31L1426.58 225.31" stroke="hsl(228.5, 77.2%, 51.5%)" stroke-width="1.5"></path><path d="M1426.58 225.31L1293.17 225.47" stroke="hsl(228.5, 77.2%, 51.5%)" stroke-width="1.5"></path><path d="M1426.58 225.31L1428.6 67.74" stroke="hsl(228.5, 77.2%, 51.5%)" stroke-width="1.5"></path><path d="M1426.58 225.31L1454.92 399.82" stroke="hsl(228.5, 77.2%, 51.5%)" stroke-width="1.5"></path><path d="M1426.58 225.31L1302.34 52.74" stroke="hsl(228.5, 77.2%, 51.5%)" stroke-width="1.5"></path><path d="M1426.58 225.31L1273.6 387.75" stroke="hsl(228.5, 77.2%, 51.5%)" stroke-width="1.5"></path><path d="M1454.92 399.82L1454.92 399.82" stroke="hsl(228.5, 77.2%, 51.5%)" stroke-width="1.5"></path><path d="M1454.92 399.82L1434.89 514.75" stroke="hsl(228.5, 77.2%, 51.5%)" stroke-width="1.5"></path><path d="M1454.92 399.82L1266.85 505.63" stroke="hsl(228.5, 77.2%, 51.5%)" stroke-width="1.5"></path><path d="M-102.4 638L-102.4 638" stroke="hsl(228.5, 77.2%, 51.5%)" stroke-width="1.5"></path><path d="M-102.4 638L61.42 662.63" stroke="hsl(228.5, 77.2%, 51.5%)" stroke-width="1.5"></path><path d="M-102.4 638L-72.35 813.63" stroke="hsl(228.5, 77.2%, 51.5%)" stroke-width="1.5"></path><path d="M-72.35 813.63L-72.35 813.63" stroke="hsl(228.5, 77.2%, 51.5%)" stroke-width="1.5"></path><path d="M-72.35 813.63L55.63 858.79" stroke="hsl(228.5, 77.2%, 51.5%)" stroke-width="1.5"></path><path d="M61.42 662.63L61.42 662.63" stroke="hsl(228.5, 77.2%, 51.5%)" stroke-width="1.5"></path><path d="M61.42 662.63L189.94 680.32" stroke="hsl(228.5, 77.2%, 51.5%)" stroke-width="1.5"></path><path d="M61.42 662.63L55.63 858.79" stroke="hsl(228.5, 77.2%, 51.5%)" stroke-width="1.5"></path><path d="M61.42 662.63L-72.35 813.63" stroke="hsl(228.5, 77.2%, 51.5%)" stroke-width="1.5"></path><path d="M55.63 858.79L55.63 858.79" stroke="hsl(228.5, 77.2%, 51.5%)" stroke-width="1.5"></path><path d="M55.63 858.79L254.62 799.81" stroke="hsl(228.5, 77.2%, 51.5%)" stroke-width="1.5"></path><path d="M189.94 680.32L189.94 680.32" stroke="hsl(228.5, 77.2%, 51.5%)" stroke-width="1.5"></path><path d="M189.94 680.32L254.62 799.81" stroke="hsl(228.5, 77.2%, 51.5%)" stroke-width="1.5"></path><path d="M189.94 680.32L392.7 661.8" stroke="hsl(228.5, 77.2%, 51.5%)" stroke-width="1.5"></path><path d="M189.94 680.32L344.71 833.55" stroke="hsl(228.5, 77.2%, 51.5%)" stroke-width="1.5"></path><path d="M254.62 799.81L254.62 799.81" stroke="hsl(228.5, 77.2%, 51.5%)" stroke-width="1.5"></path><path d="M254.62 799.81L344.71 833.55" stroke="hsl(228.5, 77.2%, 51.5%)" stroke-width="1.5"></path><path d="M254.62 799.81L392.7 661.8" stroke="hsl(228.5, 77.2%, 51.5%)" stroke-width="1.5"></path><path d="M254.62 799.81L61.42 662.63" stroke="hsl(228.5, 77.2%, 51.5%)" stroke-width="1.5"></path><path d="M409.35 541.13L409.35 541.13" stroke="hsl(228.5, 77.2%, 51.5%)" stroke-width="1.5"></path><path d="M409.35 541.13L494.83 512.76" stroke="hsl(228.5, 77.2%, 51.5%)" stroke-width="1.5"></path><path d="M409.35 541.13L557.71 667.14" stroke="hsl(228.5, 77.2%, 51.5%)" stroke-width="1.5"></path><path d="M344.71 833.55L344.71 833.55" stroke="hsl(228.5, 77.2%, 51.5%)" stroke-width="1.5"></path><path d="M344.71 833.55L392.7 661.8" stroke="hsl(228.5, 77.2%, 51.5%)" stroke-width="1.5"></path><path d="M344.71 833.55L544.73 843.63" stroke="hsl(228.5, 77.2%, 51.5%)" stroke-width="1.5"></path><path d="M344.71 833.55L557.71 667.14" stroke="hsl(228.5, 77.2%, 51.5%)" stroke-width="1.5"></path><path d="M494.83 512.76L494.83 512.76" stroke="hsl(228.5, 77.2%, 51.5%)" stroke-width="1.5"></path><path d="M494.83 512.76L557.71 667.14" stroke="hsl(228.5, 77.2%, 51.5%)" stroke-width="1.5"></path><path d="M557.71 667.14L557.71 667.14" stroke="hsl(228.5, 77.2%, 51.5%)" stroke-width="1.5"></path><path d="M557.71 667.14L703.77 672.29" stroke="hsl(228.5, 77.2%, 51.5%)" stroke-width="1.5"></path><path d="M557.71 667.14L392.7 661.8" stroke="hsl(228.5, 77.2%, 51.5%)" stroke-width="1.5"></path><path d="M557.71 667.14L544.73 843.63" stroke="hsl(228.5, 77.2%, 51.5%)" stroke-width="1.5"></path><path d="M544.73 843.63L544.73 843.63" stroke="hsl(228.5, 77.2%, 51.5%)" stroke-width="1.5"></path><path d="M544.73 843.63L695.9 833.58" stroke="hsl(228.5, 77.2%, 51.5%)" stroke-width="1.5"></path><path d="M703.77 672.29L703.77 672.29" stroke="hsl(228.5, 77.2%, 51.5%)" stroke-width="1.5"></path><path d="M703.77 672.29L695.9 833.58" stroke="hsl(228.5, 77.2%, 51.5%)" stroke-width="1.5"></path><path d="M703.77 672.29L810.07 798.95" stroke="hsl(228.5, 77.2%, 51.5%)" stroke-width="1.5"></path><path d="M695.9 833.58L695.9 833.58" stroke="hsl(228.5, 77.2%, 51.5%)" stroke-width="1.5"></path><path d="M695.9 833.58L810.07 798.95" stroke="hsl(228.5, 77.2%, 51.5%)" stroke-width="1.5"></path><path d="M825.01 406.1L825.01 406.1" stroke="hsl(228.5, 77.2%, 51.5%)" stroke-width="1.5"></path><path d="M825.01 406.1L812.97 501.99" stroke="hsl(228.5, 77.2%, 51.5%)" stroke-width="1.5"></path><path d="M825.01 406.1L953.69 347.94" stroke="hsl(228.5, 77.2%, 51.5%)" stroke-width="1.5"></path><path d="M825.01 406.1L992.49 530.73" stroke="hsl(228.5, 77.2%, 51.5%)" stroke-width="1.5"></path><path d="M825.01 406.1L858.38 681.48" stroke="hsl(228.5, 77.2%, 51.5%)" stroke-width="1.5"></path><path d="M812.97 501.99L812.97 501.99" stroke="hsl(228.5, 77.2%, 51.5%)" stroke-width="1.5"></path><path d="M810.07 798.95L810.07 798.95" stroke="hsl(228.5, 77.2%, 51.5%)" stroke-width="1.5"></path><path d="M953.69 347.94L953.69 347.94" stroke="hsl(228.5, 77.2%, 51.5%)" stroke-width="1.5"></path><path d="M953.69 347.94L992.49 530.73" stroke="hsl(228.5, 77.2%, 51.5%)" stroke-width="1.5"></path><path d="M953.69 347.94L1147.7 405.15" stroke="hsl(228.5, 77.2%, 51.5%)" stroke-width="1.5"></path><path d="M953.69 347.94L812.97 501.99" stroke="hsl(228.5, 77.2%, 51.5%)" stroke-width="1.5"></path><path d="M992.49 530.73L992.49 530.73" stroke="hsl(228.5, 77.2%, 51.5%)" stroke-width="1.5"></path><path d="M992.49 530.73L1126.84 493.82" stroke="hsl(228.5, 77.2%, 51.5%)" stroke-width="1.5"></path><path d="M992.49 530.73L1007.86 698.96" stroke="hsl(228.5, 77.2%, 51.5%)" stroke-width="1.5"></path><path d="M992.49 530.73L812.97 501.99" stroke="hsl(228.5, 77.2%, 51.5%)" stroke-width="1.5"></path><path d="M992.49 530.73L1147.7 405.15" stroke="hsl(228.5, 77.2%, 51.5%)" stroke-width="1.5"></path><path d="M992.49 530.73L858.38 681.48" stroke="hsl(228.5, 77.2%, 51.5%)" stroke-width="1.5"></path><path d="M1007.86 698.96L1007.86 698.96" stroke="hsl(228.5, 77.2%, 51.5%)" stroke-width="1.5"></path><path d="M1007.86 698.96L1133.34 695.58" stroke="hsl(228.5, 77.2%, 51.5%)" stroke-width="1.5"></path><path d="M1121.7 -102L1121.7 -102" stroke="hsl(228.5, 77.2%, 51.5%)" stroke-width="1.5"></path><path d="M1121.7 -102L1154.94 65.07" stroke="hsl(228.5, 77.2%, 51.5%)" stroke-width="1.5"></path><path d="M1121.7 -102L1293.05 -75.82" stroke="hsl(228.5, 77.2%, 51.5%)" stroke-width="1.5"></path><path d="M1121.7 -102L1302.34 52.74" stroke="hsl(228.5, 77.2%, 51.5%)" stroke-width="1.5"></path><path d="M1121.7 -102L1431.12 -56.59" stroke="hsl(228.5, 77.2%, 51.5%)" stroke-width="1.5"></path><path d="M1154.94 65.07L1154.94 65.07" stroke="hsl(228.5, 77.2%, 51.5%)" stroke-width="1.5"></path><path d="M1154.94 65.07L1302.34 52.74" stroke="hsl(228.5, 77.2%, 51.5%)" stroke-width="1.5"></path><path d="M1154.94 65.07L1155.53 248.65" stroke="hsl(228.5, 77.2%, 51.5%)" stroke-width="1.5"></path><path d="M1154.94 65.07L1293.05 -75.82" stroke="hsl(228.5, 77.2%, 51.5%)" stroke-width="1.5"></path><path d="M1154.94 65.07L1293.17 225.47" stroke="hsl(228.5, 77.2%, 51.5%)" stroke-width="1.5"></path><path d="M1155.53 248.65L1155.53 248.65" stroke="hsl(228.5, 77.2%, 51.5%)" stroke-width="1.5"></path><path d="M1155.53 248.65L1293.17 225.47" stroke="hsl(228.5, 77.2%, 51.5%)" stroke-width="1.5"></path><path d="M1155.53 248.65L1147.7 405.15" stroke="hsl(228.5, 77.2%, 51.5%)" stroke-width="1.5"></path><path d="M1147.7 405.15L1147.7 405.15" stroke="hsl(228.5, 77.2%, 51.5%)" stroke-width="1.5"></path><path d="M1147.7 405.15L1126.84 493.82" stroke="hsl(228.5, 77.2%, 51.5%)" stroke-width="1.5"></path><path d="M1147.7 405.15L1266.85 505.63" stroke="hsl(228.5, 77.2%, 51.5%)" stroke-width="1.5"></path><path d="M1126.84 493.82L1126.84 493.82" stroke="hsl(228.5, 77.2%, 51.5%)" stroke-width="1.5"></path><path d="M1126.84 493.82L1133.34 695.58" stroke="hsl(228.5, 77.2%, 51.5%)" stroke-width="1.5"></path><path d="M1133.34 695.58L1133.34 695.58" stroke="hsl(228.5, 77.2%, 51.5%)" stroke-width="1.5"></path><path d="M1133.34 695.58L1239.07 687.38" stroke="hsl(228.5, 77.2%, 51.5%)" stroke-width="1.5"></path><path d="M1133.34 695.58L1159.98 806.91" stroke="hsl(228.5, 77.2%, 51.5%)" stroke-width="1.5"></path><path d="M1133.34 695.58L1247.59 811.4" stroke="hsl(228.5, 77.2%, 51.5%)" stroke-width="1.5"></path><path d="M1159.98 806.91L1159.98 806.91" stroke="hsl(228.5, 77.2%, 51.5%)" stroke-width="1.5"></path><path d="M1159.98 806.91L1247.59 811.4" stroke="hsl(228.5, 77.2%, 51.5%)" stroke-width="1.5"></path><path d="M1159.98 806.91L1239.07 687.38" stroke="hsl(228.5, 77.2%, 51.5%)" stroke-width="1.5"></path><path d="M1293.05 -75.82L1293.05 -75.82" stroke="hsl(228.5, 77.2%, 51.5%)" stroke-width="1.5"></path><path d="M1293.05 -75.82L1302.34 52.74" stroke="hsl(228.5, 77.2%, 51.5%)" stroke-width="1.5"></path><path d="M1293.05 -75.82L1431.12 -56.59" stroke="hsl(228.5, 77.2%, 51.5%)" stroke-width="1.5"></path><path d="M1293.05 -75.82L1428.6 67.74" stroke="hsl(228.5, 77.2%, 51.5%)" stroke-width="1.5"></path><path d="M1293.05 -75.82L1293.17 225.47" stroke="hsl(228.5, 77.2%, 51.5%)" stroke-width="1.5"></path><path d="M1302.34 52.74L1302.34 52.74" stroke="hsl(228.5, 77.2%, 51.5%)" stroke-width="1.5"></path><path d="M1302.34 52.74L1428.6 67.74" stroke="hsl(228.5, 77.2%, 51.5%)" stroke-width="1.5"></path><path d="M1293.17 225.47L1293.17 225.47" stroke="hsl(228.5, 77.2%, 51.5%)" stroke-width="1.5"></path><path d="M1293.17 225.47L1302.34 52.74" stroke="hsl(228.5, 77.2%, 51.5%)" stroke-width="1.5"></path><path d="M1239.07 687.38L1239.07 687.38" stroke="hsl(228.5, 77.2%, 51.5%)" stroke-width="1.5"></path><path d="M1239.07 687.38L1247.59 811.4" stroke="hsl(228.5, 77.2%, 51.5%)" stroke-width="1.5"></path><path d="M1239.07 687.38L1388.84 706.95" stroke="hsl(228.5, 77.2%, 51.5%)" stroke-width="1.5"></path><path d="M1239.07 687.38L1266.85 505.63" stroke="hsl(228.5, 77.2%, 51.5%)" stroke-width="1.5"></path><path d="M1239.07 687.38L1126.84 493.82" stroke="hsl(228.5, 77.2%, 51.5%)" stroke-width="1.5"></path><path d="M1247.59 811.4L1247.59 811.4" stroke="hsl(228.5, 77.2%, 51.5%)" stroke-width="1.5"></path><path d="M1431.12 -56.59L1431.12 -56.59" stroke="hsl(228.5, 77.2%, 51.5%)" stroke-width="1.5"></path><path d="M1431.12 -56.59L1428.6 67.74" stroke="hsl(228.5, 77.2%, 51.5%)" stroke-width="1.5"></path><path d="M1431.12 -56.59L1302.34 52.74" stroke="hsl(228.5, 77.2%, 51.5%)" stroke-width="1.5"></path><path d="M1431.12 -56.59L1426.58 225.31" stroke="hsl(228.5, 77.2%, 51.5%)" stroke-width="1.5"></path><path d="M1428.6 67.74L1428.6 67.74" stroke="hsl(228.5, 77.2%, 51.5%)" stroke-width="1.5"></path><path d="M1434.89 514.75L1434.89 514.75" stroke="hsl(228.5, 77.2%, 51.5%)" stroke-width="1.5"></path><path d="M1434.89 514.75L1266.85 505.63" stroke="hsl(228.5, 77.2%, 51.5%)" stroke-width="1.5"></path><path d="M1434.89 514.75L1388.84 706.95" stroke="hsl(228.5, 77.2%, 51.5%)" stroke-width="1.5"></path><path d="M1388.84 706.95L1388.84 706.95" stroke="hsl(228.5, 77.2%, 51.5%)" stroke-width="1.5"></path><path d="M1388.84 706.95L1428.17 829.98" stroke="hsl(228.5, 77.2%, 51.5%)" stroke-width="1.5"></path><path d="M1388.84 706.95L1247.59 811.4" stroke="hsl(228.5, 77.2%, 51.5%)" stroke-width="1.5"></path><path d="M1428.17 829.98L1428.17 829.98" stroke="hsl(228.5, 77.2%, 51.5%)" stroke-width="1.5"></path><path d="M1428.17 829.98L1247.59 811.4" stroke="hsl(228.5, 77.2%, 51.5%)" stroke-width="1.5"></path><path d="M1428.17 829.98L1239.07 687.38" stroke="hsl(228.5, 77.2%, 51.5%)" stroke-width="1.5"></path><path d="M1428.17 829.98L1159.98 806.91" stroke="hsl(228.5, 77.2%, 51.5%)" stroke-width="1.5"></path><path d="M1428.17 829.98L1434.89 514.75" stroke="hsl(228.5, 77.2%, 51.5%)" stroke-width="1.5"></path><path d="M1428.17 829.98L1133.34 695.58" stroke="hsl(228.5, 77.2%, 51.5%)" stroke-width="1.5"></path><circle r="25" cx="392.7" cy="661.8" fill="url(&quot;#SvgjsRadialGradient1023&quot;)"></circle><circle r="25" cx="647.67" cy="517.92" fill="url(&quot;#SvgjsRadialGradient1023&quot;)"></circle><circle r="25" cx="858.38" cy="681.48" fill="url(&quot;#SvgjsRadialGradient1023&quot;)"></circle><circle r="25" cx="938.89" cy="254.93" fill="url(&quot;#SvgjsRadialGradient1023&quot;)"></circle><circle r="25" cx="1006.65" cy="846.19" fill="url(&quot;#SvgjsRadialGradient1023&quot;)"></circle><circle r="25" cx="1273.6" cy="387.75" fill="url(&quot;#SvgjsRadialGradient1023&quot;)"></circle><circle r="25" cx="1266.85" cy="505.63" fill="url(&quot;#SvgjsRadialGradient1023&quot;)"></circle><circle r="25" cx="1426.58" cy="225.31" fill="url(&quot;#SvgjsRadialGradient1023&quot;)"></circle><circle r="25" cx="1454.92" cy="399.82" fill="url(&quot;#SvgjsRadialGradient1023&quot;)"></circle><circle r="5" cx="-102.4" cy="638" fill="#8b9ad9"></circle><circle r="5" cx="-72.35" cy="813.63" fill="#8b9ad9"></circle><circle r="5" cx="61.42" cy="662.63" fill="#8b9ad9"></circle><circle r="5" cx="55.63" cy="858.79" fill="#8b9ad9"></circle><circle r="5" cx="189.94" cy="680.32" fill="#8b9ad9"></circle><circle r="5" cx="254.62" cy="799.81" fill="#8b9ad9"></circle><circle r="5" cx="409.35" cy="541.13" fill="#8b9ad9"></circle><circle r="5" cx="344.71" cy="833.55" fill="#8b9ad9"></circle><circle r="5" cx="494.83" cy="512.76" fill="#8b9ad9"></circle><circle r="5" cx="557.71" cy="667.14" fill="#8b9ad9"></circle><circle r="5" cx="544.73" cy="843.63" fill="#8b9ad9"></circle><circle r="5" cx="703.77" cy="672.29" fill="#8b9ad9"></circle><circle r="5" cx="695.9" cy="833.58" fill="#8b9ad9"></circle><circle r="5" cx="825.01" cy="406.1" fill="#8b9ad9"></circle><circle r="5" cx="812.97" cy="501.99" fill="#8b9ad9"></circle><circle r="5" cx="810.07" cy="798.95" fill="#8b9ad9"></circle><circle r="5" cx="953.69" cy="347.94" fill="#8b9ad9"></circle><circle r="5" cx="992.49" cy="530.73" fill="#8b9ad9"></circle><circle r="5" cx="1007.86" cy="698.96" fill="#8b9ad9"></circle><circle r="5" cx="1121.7" cy="-102" fill="#8b9ad9"></circle><circle r="5" cx="1154.94" cy="65.07" fill="#8b9ad9"></circle><circle r="5" cx="1155.53" cy="248.65" fill="#8b9ad9"></circle><circle r="5" cx="1147.7" cy="405.15" fill="#8b9ad9"></circle><circle r="5" cx="1126.84" cy="493.82" fill="#8b9ad9"></circle><circle r="5" cx="1133.34" cy="695.58" fill="#8b9ad9"></circle><circle r="5" cx="1159.98" cy="806.91" fill="#8b9ad9"></circle><circle r="5" cx="1293.05" cy="-75.82" fill="#8b9ad9"></circle><circle r="5" cx="1302.34" cy="52.74" fill="#8b9ad9"></circle><circle r="5" cx="1293.17" cy="225.47" fill="#8b9ad9"></circle><circle r="5" cx="1239.07" cy="687.38" fill="#8b9ad9"></circle><circle r="5" cx="1247.59" cy="811.4" fill="#8b9ad9"></circle><circle r="5" cx="1431.12" cy="-56.59" fill="#8b9ad9"></circle><circle r="5" cx="1428.6" cy="67.74" fill="#8b9ad9"></circle><circle r="5" cx="1434.89" cy="514.75" fill="#8b9ad9"></circle><circle r="5" cx="1388.84" cy="706.95" fill="#8b9ad9"></circle><circle r="5" cx="1428.17" cy="829.98" fill="#8b9ad9"></circle></g><defs><mask id="SvgjsMask1022"><rect width="1280" height="720" fill="#ffffff"></rect></mask><radialGradient id="SvgjsRadialGradient1023"><stop stop-color="#ffffff" offset="0.1"></stop><stop stop-color="#1735b3" offset="0.2"></stop><stop stop-color="rgba(23, 53, 179, 0)" offset="1"></stop></radialGradient></defs></svg>