<svg xmlns="http://www.w3.org/2000/svg" version="1.1" xmlns:xlink="http://www.w3.org/1999/xlink" xmlns:svgjs="http://svgjs.dev/svgjs" width="1440" height="560" preserveAspectRatio="none" viewBox="0 0 1440 560"><g mask="url(&quot;#SvgjsMask1132&quot;)" fill="none"><g mask="url(&quot;#SvgjsMask1133&quot;)"><path d="M507.5 122.5L507.5 192.5L437.5 262.5L437.5 437.5L332.5 542.5L87.5 542.5" stroke-width="5.83" stroke="#3a7cc3"></path><path d="M498.75 122.5 a8.75 8.75 0 1 0 17.5 0 a8.75 8.75 0 1 0 -17.5 0zM78.75 542.5 a8.75 8.75 0 1 0 17.5 0 a8.75 8.75 0 1 0 -17.5 0z" fill="#3a7cc3"></path><path d="M787.5 542.5L647.5 402.5L472.5 402.5" stroke-width="5.83" stroke="#3a7cc3"></path><path d="M778.75 542.5 a8.75 8.75 0 1 0 17.5 0 a8.75 8.75 0 1 0 -17.5 0zM463.75 402.5 a8.75 8.75 0 1 0 17.5 0 a8.75 8.75 0 1 0 -17.5 0z" fill="#3a7cc3"></path><path d="M997.5 227.5L857.5 227.5L787.5 297.5L752.5 297.5L542.5 87.5L332.5 87.5" stroke-width="5.83" stroke="#3a7cc3"></path><path d="M988.75 227.5 a8.75 8.75 0 1 0 17.5 0 a8.75 8.75 0 1 0 -17.5 0zM323.75 87.5 a8.75 8.75 0 1 0 17.5 0 a8.75 8.75 0 1 0 -17.5 0z" fill="#3a7cc3"></path><path d="M1312.5 472.5L1312.5 157.5L1172.5 17.5L962.5 17.5" stroke-width="5.83" stroke="#3a7cc3"></path><path d="M1303.75 472.5 a8.75 8.75 0 1 0 17.5 0 a8.75 8.75 0 1 0 -17.5 0zM953.75 17.5 a8.75 8.75 0 1 0 17.5 0 a8.75 8.75 0 1 0 -17.5 0z" fill="#3a7cc3"></path><path d="M227.5 262.5L17.5 262.5" stroke-width="5.83" stroke="#3a7cc3"></path><path d="M218.75 262.5 a8.75 8.75 0 1 0 17.5 0 a8.75 8.75 0 1 0 -17.5 0zM8.75 262.5 a8.75 8.75 0 1 0 17.5 0 a8.75 8.75 0 1 0 -17.5 0z" fill="#3a7cc3"></path><path d="M1277.5 87.5L1347.5 17.5L1452.5 17.5" stroke-width="5.83" stroke="#3a7cc3"></path><path d="M1268.75 87.5 a8.75 8.75 0 1 0 17.5 0 a8.75 8.75 0 1 0 -17.5 0zM1443.75 17.5 a8.75 8.75 0 1 0 17.5 0 a8.75 8.75 0 1 0 -17.5 0z" fill="#3a7cc3"></path><path d="M612.5 17.5L612.5 122.5L752.5 262.5L787.5 262.5L997.5 52.5L1172.5 52.5" stroke-width="5.83" stroke="#3a7cc3"></path><path d="M603.75 17.5 a8.75 8.75 0 1 0 17.5 0 a8.75 8.75 0 1 0 -17.5 0zM1163.75 52.5 a8.75 8.75 0 1 0 17.5 0 a8.75 8.75 0 1 0 -17.5 0z" fill="#3a7cc3"></path><path d="M927.5 262.5L1207.5 542.5L1452.5 542.5" stroke-width="5.83" stroke="#3a7cc3"></path><path d="M918.75 262.5 a8.75 8.75 0 1 0 17.5 0 a8.75 8.75 0 1 0 -17.5 0zM1443.75 542.5 a8.75 8.75 0 1 0 17.5 0 a8.75 8.75 0 1 0 -17.5 0z" fill="#3a7cc3"></path><path d="M1137.5 157.5L1137.5 192.5L1277.5 332.5L1277.5 507.5" stroke-width="5.83" stroke="#3a7cc3"></path><path d="M1128.75 157.5 a8.75 8.75 0 1 0 17.5 0 a8.75 8.75 0 1 0 -17.5 0zM1268.75 507.5 a8.75 8.75 0 1 0 17.5 0 a8.75 8.75 0 1 0 -17.5 0z" fill="#3a7cc3"></path><path d="M1452.5 87.5L1312.5 87.5" stroke-width="5.83" stroke="#3a7cc3"></path><path d="M1443.75 87.5 a8.75 8.75 0 1 0 17.5 0 a8.75 8.75 0 1 0 -17.5 0zM1303.75 87.5 a8.75 8.75 0 1 0 17.5 0 a8.75 8.75 0 1 0 -17.5 0z" fill="#3a7cc3"></path><path d="M1067.5 332.5L997.5 262.5L962.5 262.5" stroke-width="5.83" stroke="#3a7cc3"></path><path d="M1058.75 332.5 a8.75 8.75 0 1 0 17.5 0 a8.75 8.75 0 1 0 -17.5 0zM953.75 262.5 a8.75 8.75 0 1 0 17.5 0 a8.75 8.75 0 1 0 -17.5 0z" fill="#3a7cc3"></path><path d="M682.5 297.5L682.5 262.5L542.5 122.5" stroke-width="5.83" stroke="#3a7cc3"></path><path d="M673.75 297.5 a8.75 8.75 0 1 0 17.5 0 a8.75 8.75 0 1 0 -17.5 0zM533.75 122.5 a8.75 8.75 0 1 0 17.5 0 a8.75 8.75 0 1 0 -17.5 0z" fill="#3a7cc3"></path><path d="M892.5 402.5L787.5 402.5L717.5 332.5L717.5 297.5" stroke-width="5.83" stroke="#3a7cc3"></path><path d="M883.75 402.5 a8.75 8.75 0 1 0 17.5 0 a8.75 8.75 0 1 0 -17.5 0zM708.75 297.5 a8.75 8.75 0 1 0 17.5 0 a8.75 8.75 0 1 0 -17.5 0z" fill="#3a7cc3"></path><path d="M997.5 437.5L1067.5 437.5L1172.5 542.5" stroke-width="5.83" stroke="#3a7cc3"></path><path d="M988.75 437.5 a8.75 8.75 0 1 0 17.5 0 a8.75 8.75 0 1 0 -17.5 0zM1163.75 542.5 a8.75 8.75 0 1 0 17.5 0 a8.75 8.75 0 1 0 -17.5 0z" fill="#3a7cc3"></path><path d="M1137.5 542.5L1067.5 472.5L752.5 472.5L507.5 227.5" stroke-width="5.83" stroke="#3a7cc3"></path><path d="M1128.75 542.5 a8.75 8.75 0 1 0 17.5 0 a8.75 8.75 0 1 0 -17.5 0zM498.75 227.5 a8.75 8.75 0 1 0 17.5 0 a8.75 8.75 0 1 0 -17.5 0z" fill="#3a7cc3"></path><path d="M1067.5 157.5L997.5 87.5" stroke-width="5.83" stroke="#3a7cc3"></path><path d="M1058.75 157.5 a8.75 8.75 0 1 0 17.5 0 a8.75 8.75 0 1 0 -17.5 0zM988.75 87.5 a8.75 8.75 0 1 0 17.5 0 a8.75 8.75 0 1 0 -17.5 0z" fill="#3a7cc3"></path><path d="M612.5 262.5L612.5 227.5L542.5 157.5" stroke-width="5.83" stroke="#3a7cc3"></path><path d="M603.75 262.5 a8.75 8.75 0 1 0 17.5 0 a8.75 8.75 0 1 0 -17.5 0zM533.75 157.5 a8.75 8.75 0 1 0 17.5 0 a8.75 8.75 0 1 0 -17.5 0z" fill="#3a7cc3"></path><path d="M752.5 87.5L822.5 17.5L927.5 17.5L962.5 52.5" stroke-width="5.83" stroke="#3a7cc3"></path><path d="M743.75 87.5 a8.75 8.75 0 1 0 17.5 0 a8.75 8.75 0 1 0 -17.5 0zM953.75 52.5 a8.75 8.75 0 1 0 17.5 0 a8.75 8.75 0 1 0 -17.5 0z" fill="#3a7cc3"></path><path d="M437.5 472.5L682.5 472.5L752.5 542.5" stroke-width="5.83" stroke="#3a7cc3"></path><path d="M428.75 472.5 a8.75 8.75 0 1 0 17.5 0 a8.75 8.75 0 1 0 -17.5 0zM743.75 542.5 a8.75 8.75 0 1 0 17.5 0 a8.75 8.75 0 1 0 -17.5 0z" fill="#3a7cc3"></path><path d="M472.5 122.5L17.5 122.5" stroke-width="5.83" stroke="#3a7cc3"></path><path d="M463.75 122.5 a8.75 8.75 0 1 0 17.5 0 a8.75 8.75 0 1 0 -17.5 0zM8.75 122.5 a8.75 8.75 0 1 0 17.5 0 a8.75 8.75 0 1 0 -17.5 0z" fill="#3a7cc3"></path><path d="M227.5 52.5L262.5 17.5L577.5 17.5" stroke-width="5.83" stroke="#3a7cc3"></path><path d="M218.75 52.5 a8.75 8.75 0 1 0 17.5 0 a8.75 8.75 0 1 0 -17.5 0zM568.75 17.5 a8.75 8.75 0 1 0 17.5 0 a8.75 8.75 0 1 0 -17.5 0z" fill="#3a7cc3"></path><path d="M87.5 332.5L262.5 507.5L332.5 507.5L402.5 437.5L402.5 157.5" stroke-width="5.83" stroke="#3a7cc3"></path><path d="M78.75 332.5 a8.75 8.75 0 1 0 17.5 0 a8.75 8.75 0 1 0 -17.5 0zM393.75 157.5 a8.75 8.75 0 1 0 17.5 0 a8.75 8.75 0 1 0 -17.5 0z" fill="#3a7cc3"></path><path d="M997.5 507.5L787.5 507.5" stroke-width="5.83" stroke="#3a7cc3"></path><path d="M988.75 507.5 a8.75 8.75 0 1 0 17.5 0 a8.75 8.75 0 1 0 -17.5 0zM778.75 507.5 a8.75 8.75 0 1 0 17.5 0 a8.75 8.75 0 1 0 -17.5 0z" fill="#3a7cc3"></path><path d="M122.5 507.5L17.5 507.5" stroke-width="5.83" stroke="#3a7cc3"></path><path d="M113.75 507.5 a8.75 8.75 0 1 0 17.5 0 a8.75 8.75 0 1 0 -17.5 0zM8.75 507.5 a8.75 8.75 0 1 0 17.5 0 a8.75 8.75 0 1 0 -17.5 0z" fill="#3a7cc3"></path><path d="M1207.5 227.5L1277.5 297.5" stroke-width="5.83" stroke="#3a7cc3"></path><path d="M1198.75 227.5 a8.75 8.75 0 1 0 17.5 0 a8.75 8.75 0 1 0 -17.5 0zM1268.75 297.5 a8.75 8.75 0 1 0 17.5 0 a8.75 8.75 0 1 0 -17.5 0z" fill="#3a7cc3"></path><path d="M1347.5 437.5L1347.5 192.5L1417.5 122.5L1452.5 122.5" stroke-width="5.83" stroke="#3a7cc3"></path><path d="M1338.75 437.5 a8.75 8.75 0 1 0 17.5 0 a8.75 8.75 0 1 0 -17.5 0zM1443.75 122.5 a8.75 8.75 0 1 0 17.5 0 a8.75 8.75 0 1 0 -17.5 0z" fill="#3a7cc3"></path><path d="M752.5 227.5L927.5 52.5" stroke-width="5.83" stroke="#3a7cc3"></path><path d="M743.75 227.5 a8.75 8.75 0 1 0 17.5 0 a8.75 8.75 0 1 0 -17.5 0zM918.75 52.5 a8.75 8.75 0 1 0 17.5 0 a8.75 8.75 0 1 0 -17.5 0z" fill="#3a7cc3"></path><path d="M122.5 227.5L17.5 227.5" stroke-width="5.83" stroke="#3a7cc3"></path><path d="M113.75 227.5 a8.75 8.75 0 1 0 17.5 0 a8.75 8.75 0 1 0 -17.5 0zM8.75 227.5 a8.75 8.75 0 1 0 17.5 0 a8.75 8.75 0 1 0 -17.5 0z" fill="#3a7cc3"></path><path d="M1382.5 402.5L1382.5 507.5" stroke-width="5.83" stroke="#3a7cc3"></path><path d="M1373.75 402.5 a8.75 8.75 0 1 0 17.5 0 a8.75 8.75 0 1 0 -17.5 0zM1373.75 507.5 a8.75 8.75 0 1 0 17.5 0 a8.75 8.75 0 1 0 -17.5 0z" fill="#3a7cc3"></path><path d="M227.5 367.5L367.5 227.5L367.5 157.5" stroke-width="5.83" stroke="#3a7cc3"></path><path d="M218.75 367.5 a8.75 8.75 0 1 0 17.5 0 a8.75 8.75 0 1 0 -17.5 0zM358.75 157.5 a8.75 8.75 0 1 0 17.5 0 a8.75 8.75 0 1 0 -17.5 0z" fill="#3a7cc3"></path><path d="M822.5 332.5L857.5 332.5L892.5 297.5L927.5 297.5L1032.5 402.5" stroke-width="5.83" stroke="#3a7cc3"></path><path d="M813.75 332.5 a8.75 8.75 0 1 0 17.5 0 a8.75 8.75 0 1 0 -17.5 0zM1023.75 402.5 a8.75 8.75 0 1 0 17.5 0 a8.75 8.75 0 1 0 -17.5 0z" fill="#3a7cc3"></path><path d="M1102.5 122.5L1067.5 122.5L1032.5 87.5" stroke-width="5.83" stroke="#3a7cc3"></path><path d="M1093.75 122.5 a8.75 8.75 0 1 0 17.5 0 a8.75 8.75 0 1 0 -17.5 0zM1023.75 87.5 a8.75 8.75 0 1 0 17.5 0 a8.75 8.75 0 1 0 -17.5 0z" fill="#3a7cc3"></path><path d="M367.5 542.5L402.5 507.5L472.5 507.5L507.5 542.5L717.5 542.5" stroke-width="5.83" stroke="#3a7cc3"></path><path d="M358.75 542.5 a8.75 8.75 0 1 0 17.5 0 a8.75 8.75 0 1 0 -17.5 0zM708.75 542.5 a8.75 8.75 0 1 0 17.5 0 a8.75 8.75 0 1 0 -17.5 0z" fill="#3a7cc3"></path><path d="M682.5 87.5L717.5 122.5L822.5 122.5L857.5 87.5L857.5 52.5" stroke-width="5.83" stroke="#3a7cc3"></path><path d="M673.75 87.5 a8.75 8.75 0 1 0 17.5 0 a8.75 8.75 0 1 0 -17.5 0zM848.75 52.5 a8.75 8.75 0 1 0 17.5 0 a8.75 8.75 0 1 0 -17.5 0z" fill="#3a7cc3"></path><path d="M1032.5 157.5L927.5 157.5L892.5 192.5" stroke-width="5.83" stroke="#3a7cc3"></path><path d="M1023.75 157.5 a8.75 8.75 0 1 0 17.5 0 a8.75 8.75 0 1 0 -17.5 0zM883.75 192.5 a8.75 8.75 0 1 0 17.5 0 a8.75 8.75 0 1 0 -17.5 0z" fill="#3a7cc3"></path><path d="M1172.5 437.5L1207.5 402.5L1242.5 402.5" stroke-width="5.83" stroke="#3a7cc3"></path><path d="M1163.75 437.5 a8.75 8.75 0 1 0 17.5 0 a8.75 8.75 0 1 0 -17.5 0zM1233.75 402.5 a8.75 8.75 0 1 0 17.5 0 a8.75 8.75 0 1 0 -17.5 0z" fill="#3a7cc3"></path><path d="M752.5 402.5L647.5 297.5L612.5 297.5" stroke-width="5.83" stroke="#3a7cc3"></path><path d="M743.75 402.5 a8.75 8.75 0 1 0 17.5 0 a8.75 8.75 0 1 0 -17.5 0zM603.75 297.5 a8.75 8.75 0 1 0 17.5 0 a8.75 8.75 0 1 0 -17.5 0z" fill="#3a7cc3"></path><path d="M682.5 122.5L647.5 87.5L647.5 17.5" stroke-width="5.83" stroke="#3a7cc3"></path><path d="M673.75 122.5 a8.75 8.75 0 1 0 17.5 0 a8.75 8.75 0 1 0 -17.5 0zM638.75 17.5 a8.75 8.75 0 1 0 17.5 0 a8.75 8.75 0 1 0 -17.5 0z" fill="#3a7cc3"></path><path d="M1137.5 227.5L1137.5 402.5" stroke-width="5.83" stroke="#3a7cc3"></path><path d="M1128.75 227.5 a8.75 8.75 0 1 0 17.5 0 a8.75 8.75 0 1 0 -17.5 0zM1128.75 402.5 a8.75 8.75 0 1 0 17.5 0 a8.75 8.75 0 1 0 -17.5 0z" fill="#3a7cc3"></path><path d="M1382.5 192.5L1452.5 262.5L1452.5 472.5L1417.5 507.5" stroke-width="5.83" stroke="#3a7cc3"></path><path d="M1373.75 192.5 a8.75 8.75 0 1 0 17.5 0 a8.75 8.75 0 1 0 -17.5 0zM1408.75 507.5 a8.75 8.75 0 1 0 17.5 0 a8.75 8.75 0 1 0 -17.5 0z" fill="#3a7cc3"></path><path d="M122.5 472.5L122.5 402.5L17.5 297.5" stroke-width="5.83" stroke="#3a7cc3"></path><path d="M113.75 472.5 a8.75 8.75 0 1 0 17.5 0 a8.75 8.75 0 1 0 -17.5 0zM8.75 297.5 a8.75 8.75 0 1 0 17.5 0 a8.75 8.75 0 1 0 -17.5 0z" fill="#3a7cc3"></path><path d="M822.5 297.5L857.5 297.5L892.5 262.5" stroke-width="5.83" stroke="#3a7cc3"></path><path d="M813.75 297.5 a8.75 8.75 0 1 0 17.5 0 a8.75 8.75 0 1 0 -17.5 0zM883.75 262.5 a8.75 8.75 0 1 0 17.5 0 a8.75 8.75 0 1 0 -17.5 0z" fill="#3a7cc3"></path><path d="M122.5 192.5L157.5 227.5L192.5 227.5L262.5 157.5L332.5 157.5" stroke-width="5.83" stroke="#3a7cc3"></path><path d="M113.75 192.5 a8.75 8.75 0 1 0 17.5 0 a8.75 8.75 0 1 0 -17.5 0zM323.75 157.5 a8.75 8.75 0 1 0 17.5 0 a8.75 8.75 0 1 0 -17.5 0z" fill="#3a7cc3"></path><path d="M612.5 507.5L682.5 507.5" stroke-width="5.83" stroke="#3a7cc3"></path><path d="M603.75 507.5 a8.75 8.75 0 1 0 17.5 0 a8.75 8.75 0 1 0 -17.5 0zM673.75 507.5 a8.75 8.75 0 1 0 17.5 0 a8.75 8.75 0 1 0 -17.5 0z" fill="#3a7cc3"></path><path d="M262.5 437.5L297.5 472.5L332.5 472.5L367.5 437.5L367.5 262.5" stroke-width="5.83" stroke="#3a7cc3"></path><path d="M253.75 437.5 a8.75 8.75 0 1 0 17.5 0 a8.75 8.75 0 1 0 -17.5 0zM358.75 262.5 a8.75 8.75 0 1 0 17.5 0 a8.75 8.75 0 1 0 -17.5 0z" fill="#3a7cc3"></path><path d="M787.5 367.5L962.5 367.5L997.5 402.5" stroke-width="5.83" stroke="#3a7cc3"></path><path d="M778.75 367.5 a8.75 8.75 0 1 0 17.5 0 a8.75 8.75 0 1 0 -17.5 0zM988.75 402.5 a8.75 8.75 0 1 0 17.5 0 a8.75 8.75 0 1 0 -17.5 0z" fill="#3a7cc3"></path><path d="M192.5 192.5L157.5 192.5L122.5 157.5L17.5 157.5" stroke-width="5.83" stroke="#3a7cc3"></path><path d="M183.75 192.5 a8.75 8.75 0 1 0 17.5 0 a8.75 8.75 0 1 0 -17.5 0zM8.75 157.5 a8.75 8.75 0 1 0 17.5 0 a8.75 8.75 0 1 0 -17.5 0z" fill="#3a7cc3"></path><path d="M17.5 437.5L52.5 402.5L87.5 402.5" stroke-width="5.83" stroke="#3a7cc3"></path><path d="M8.75 437.5 a8.75 8.75 0 1 0 17.5 0 a8.75 8.75 0 1 0 -17.5 0zM78.75 402.5 a8.75 8.75 0 1 0 17.5 0 a8.75 8.75 0 1 0 -17.5 0z" fill="#3a7cc3"></path><path d="M1417.5 472.5L1417.5 262.5L1382.5 227.5" stroke-width="5.83" stroke="#3a7cc3"></path><path d="M1408.75 472.5 a8.75 8.75 0 1 0 17.5 0 a8.75 8.75 0 1 0 -17.5 0zM1373.75 227.5 a8.75 8.75 0 1 0 17.5 0 a8.75 8.75 0 1 0 -17.5 0z" fill="#3a7cc3"></path><path d="M1102.5 192.5L1032.5 262.5" stroke-width="5.83" stroke="#3a7cc3"></path><path d="M1093.75 192.5 a8.75 8.75 0 1 0 17.5 0 a8.75 8.75 0 1 0 -17.5 0zM1023.75 262.5 a8.75 8.75 0 1 0 17.5 0 a8.75 8.75 0 1 0 -17.5 0z" fill="#3a7cc3"></path><path d="M682.5 17.5L717.5 52.5L717.5 87.5" stroke-width="5.83" stroke="#3a7cc3"></path><path d="M673.75 17.5 a8.75 8.75 0 1 0 17.5 0 a8.75 8.75 0 1 0 -17.5 0zM708.75 87.5 a8.75 8.75 0 1 0 17.5 0 a8.75 8.75 0 1 0 -17.5 0z" fill="#3a7cc3"></path><path d="M472.5 367.5L612.5 367.5" stroke-width="5.83" stroke="#3a7cc3"></path><path d="M463.75 367.5 a8.75 8.75 0 1 0 17.5 0 a8.75 8.75 0 1 0 -17.5 0zM603.75 367.5 a8.75 8.75 0 1 0 17.5 0 a8.75 8.75 0 1 0 -17.5 0z" fill="#3a7cc3"></path><path d="M1102.5 227.5L1067.5 262.5L1067.5 297.5L1102.5 332.5L1102.5 402.5" stroke-width="5.83" stroke="#3a7cc3"></path><path d="M1093.75 227.5 a8.75 8.75 0 1 0 17.5 0 a8.75 8.75 0 1 0 -17.5 0zM1093.75 402.5 a8.75 8.75 0 1 0 17.5 0 a8.75 8.75 0 1 0 -17.5 0z" fill="#3a7cc3"></path><path d="M157.5 507.5L157.5 437.5" stroke-width="5.83" stroke="#3a7cc3"></path><path d="M148.75 507.5 a8.75 8.75 0 1 0 17.5 0 a8.75 8.75 0 1 0 -17.5 0zM148.75 437.5 a8.75 8.75 0 1 0 17.5 0 a8.75 8.75 0 1 0 -17.5 0z" fill="#3a7cc3"></path><path d="M122.5 297.5L52.5 297.5" stroke-width="5.83" stroke="#3a7cc3"></path><path d="M113.75 297.5 a8.75 8.75 0 1 0 17.5 0 a8.75 8.75 0 1 0 -17.5 0zM43.75 297.5 a8.75 8.75 0 1 0 17.5 0 a8.75 8.75 0 1 0 -17.5 0z" fill="#3a7cc3"></path><path d="M1242.5 192.5L1172.5 192.5" stroke-width="5.83" stroke="#3a7cc3"></path><path d="M1233.75 192.5 a8.75 8.75 0 1 0 17.5 0 a8.75 8.75 0 1 0 -17.5 0zM1163.75 192.5 a8.75 8.75 0 1 0 17.5 0 a8.75 8.75 0 1 0 -17.5 0z" fill="#3a7cc3"></path><path d="M87.5 87.5L297.5 87.5L332.5 52.5L577.5 52.5" stroke-width="5.83" stroke="#3a7cc3"></path><path d="M78.75 87.5 a8.75 8.75 0 1 0 17.5 0 a8.75 8.75 0 1 0 -17.5 0zM568.75 52.5 a8.75 8.75 0 1 0 17.5 0 a8.75 8.75 0 1 0 -17.5 0z" fill="#3a7cc3"></path><path d="M192.5 332.5L122.5 332.5" stroke-width="5.83" stroke="#3a7cc3"></path><path d="M183.75 332.5 a8.75 8.75 0 1 0 17.5 0 a8.75 8.75 0 1 0 -17.5 0zM113.75 332.5 a8.75 8.75 0 1 0 17.5 0 a8.75 8.75 0 1 0 -17.5 0z" fill="#3a7cc3"></path><path d="M1242.5 122.5L1207.5 87.5L1102.5 87.5" stroke-width="5.83" stroke="#3a7cc3"></path><path d="M1233.75 122.5 a8.75 8.75 0 1 0 17.5 0 a8.75 8.75 0 1 0 -17.5 0zM1093.75 87.5 a8.75 8.75 0 1 0 17.5 0 a8.75 8.75 0 1 0 -17.5 0z" fill="#3a7cc3"></path><path d="M297.5 437.5L332.5 402.5L332.5 332.5" stroke-width="5.83" stroke="#3a7cc3"></path><path d="M288.75 437.5 a8.75 8.75 0 1 0 17.5 0 a8.75 8.75 0 1 0 -17.5 0zM323.75 332.5 a8.75 8.75 0 1 0 17.5 0 a8.75 8.75 0 1 0 -17.5 0z" fill="#3a7cc3"></path><path d="M577.5 507.5L507.5 507.5" stroke-width="5.83" stroke="#3a7cc3"></path><path d="M568.75 507.5 a8.75 8.75 0 1 0 17.5 0 a8.75 8.75 0 1 0 -17.5 0zM498.75 507.5 a8.75 8.75 0 1 0 17.5 0 a8.75 8.75 0 1 0 -17.5 0z" fill="#3a7cc3"></path><path d="M262.5 297.5L262.5 262.5L332.5 192.5" stroke-width="5.83" stroke="#3a7cc3"></path><path d="M253.75 297.5 a8.75 8.75 0 1 0 17.5 0 a8.75 8.75 0 1 0 -17.5 0zM323.75 192.5 a8.75 8.75 0 1 0 17.5 0 a8.75 8.75 0 1 0 -17.5 0z" fill="#3a7cc3"></path><path d="M87.5 192.5L17.5 192.5" stroke-width="5.83" stroke="#3a7cc3"></path><path d="M78.75 192.5 a8.75 8.75 0 1 0 17.5 0 a8.75 8.75 0 1 0 -17.5 0zM8.75 192.5 a8.75 8.75 0 1 0 17.5 0 a8.75 8.75 0 1 0 -17.5 0z" fill="#3a7cc3"></path><path d="M962.5 402.5L927.5 437.5L892.5 437.5" stroke-width="5.83" stroke="#3a7cc3"></path><path d="M953.75 402.5 a8.75 8.75 0 1 0 17.5 0 a8.75 8.75 0 1 0 -17.5 0zM883.75 437.5 a8.75 8.75 0 1 0 17.5 0 a8.75 8.75 0 1 0 -17.5 0z" fill="#3a7cc3"></path><path d="M962.5 542.5L857.5 542.5" stroke-width="5.83" stroke="#3a7cc3"></path><path d="M953.75 542.5 a8.75 8.75 0 1 0 17.5 0 a8.75 8.75 0 1 0 -17.5 0zM848.75 542.5 a8.75 8.75 0 1 0 17.5 0 a8.75 8.75 0 1 0 -17.5 0z" fill="#3a7cc3"></path><path d="M542.5 437.5L472.5 437.5" stroke-width="5.83" stroke="#3a7cc3"></path><path d="M533.75 437.5 a8.75 8.75 0 1 0 17.5 0 a8.75 8.75 0 1 0 -17.5 0zM463.75 437.5 a8.75 8.75 0 1 0 17.5 0 a8.75 8.75 0 1 0 -17.5 0z" fill="#3a7cc3"></path></g></g><defs><mask id="SvgjsMask1132"><rect width="1440" height="560" fill="#ffffff"></rect></mask><mask id="SvgjsMask1133"><rect width="1440" height="560" fill="white"></rect><path d="M503.12 122.5 a4.38 4.38 0 1 0 8.76 0 a4.38 4.38 0 1 0 -8.76 0zM83.12 542.5 a4.38 4.38 0 1 0 8.76 0 a4.38 4.38 0 1 0 -8.76 0z" fill="black"></path><path d="M783.12 542.5 a4.38 4.38 0 1 0 8.76 0 a4.38 4.38 0 1 0 -8.76 0zM468.12 402.5 a4.38 4.38 0 1 0 8.76 0 a4.38 4.38 0 1 0 -8.76 0z" fill="black"></path><path d="M993.12 227.5 a4.38 4.38 0 1 0 8.76 0 a4.38 4.38 0 1 0 -8.76 0zM328.12 87.5 a4.38 4.38 0 1 0 8.76 0 a4.38 4.38 0 1 0 -8.76 0z" fill="black"></path><path d="M1308.12 472.5 a4.38 4.38 0 1 0 8.76 0 a4.38 4.38 0 1 0 -8.76 0zM958.12 17.5 a4.38 4.38 0 1 0 8.76 0 a4.38 4.38 0 1 0 -8.76 0z" fill="black"></path><path d="M223.12 262.5 a4.38 4.38 0 1 0 8.76 0 a4.38 4.38 0 1 0 -8.76 0zM13.12 262.5 a4.38 4.38 0 1 0 8.76 0 a4.38 4.38 0 1 0 -8.76 0z" fill="black"></path><path d="M1273.12 87.5 a4.38 4.38 0 1 0 8.76 0 a4.38 4.38 0 1 0 -8.76 0zM1448.12 17.5 a4.38 4.38 0 1 0 8.76 0 a4.38 4.38 0 1 0 -8.76 0z" fill="black"></path><path d="M608.12 17.5 a4.38 4.38 0 1 0 8.76 0 a4.38 4.38 0 1 0 -8.76 0zM1168.12 52.5 a4.38 4.38 0 1 0 8.76 0 a4.38 4.38 0 1 0 -8.76 0z" fill="black"></path><path d="M923.12 262.5 a4.38 4.38 0 1 0 8.76 0 a4.38 4.38 0 1 0 -8.76 0zM1448.12 542.5 a4.38 4.38 0 1 0 8.76 0 a4.38 4.38 0 1 0 -8.76 0z" fill="black"></path><path d="M1133.12 157.5 a4.38 4.38 0 1 0 8.76 0 a4.38 4.38 0 1 0 -8.76 0zM1273.12 507.5 a4.38 4.38 0 1 0 8.76 0 a4.38 4.38 0 1 0 -8.76 0z" fill="black"></path><path d="M1448.12 87.5 a4.38 4.38 0 1 0 8.76 0 a4.38 4.38 0 1 0 -8.76 0zM1308.12 87.5 a4.38 4.38 0 1 0 8.76 0 a4.38 4.38 0 1 0 -8.76 0z" fill="black"></path><path d="M1063.12 332.5 a4.38 4.38 0 1 0 8.76 0 a4.38 4.38 0 1 0 -8.76 0zM958.12 262.5 a4.38 4.38 0 1 0 8.76 0 a4.38 4.38 0 1 0 -8.76 0z" fill="black"></path><path d="M678.12 297.5 a4.38 4.38 0 1 0 8.76 0 a4.38 4.38 0 1 0 -8.76 0zM538.12 122.5 a4.38 4.38 0 1 0 8.76 0 a4.38 4.38 0 1 0 -8.76 0z" fill="black"></path><path d="M888.12 402.5 a4.38 4.38 0 1 0 8.76 0 a4.38 4.38 0 1 0 -8.76 0zM713.12 297.5 a4.38 4.38 0 1 0 8.76 0 a4.38 4.38 0 1 0 -8.76 0z" fill="black"></path><path d="M993.12 437.5 a4.38 4.38 0 1 0 8.76 0 a4.38 4.38 0 1 0 -8.76 0zM1168.12 542.5 a4.38 4.38 0 1 0 8.76 0 a4.38 4.38 0 1 0 -8.76 0z" fill="black"></path><path d="M1133.12 542.5 a4.38 4.38 0 1 0 8.76 0 a4.38 4.38 0 1 0 -8.76 0zM503.12 227.5 a4.38 4.38 0 1 0 8.76 0 a4.38 4.38 0 1 0 -8.76 0z" fill="black"></path><path d="M1063.12 157.5 a4.38 4.38 0 1 0 8.76 0 a4.38 4.38 0 1 0 -8.76 0zM993.12 87.5 a4.38 4.38 0 1 0 8.76 0 a4.38 4.38 0 1 0 -8.76 0z" fill="black"></path><path d="M608.12 262.5 a4.38 4.38 0 1 0 8.76 0 a4.38 4.38 0 1 0 -8.76 0zM538.12 157.5 a4.38 4.38 0 1 0 8.76 0 a4.38 4.38 0 1 0 -8.76 0z" fill="black"></path><path d="M748.12 87.5 a4.38 4.38 0 1 0 8.76 0 a4.38 4.38 0 1 0 -8.76 0zM958.12 52.5 a4.38 4.38 0 1 0 8.76 0 a4.38 4.38 0 1 0 -8.76 0z" fill="black"></path><path d="M433.12 472.5 a4.38 4.38 0 1 0 8.76 0 a4.38 4.38 0 1 0 -8.76 0zM748.12 542.5 a4.38 4.38 0 1 0 8.76 0 a4.38 4.38 0 1 0 -8.76 0z" fill="black"></path><path d="M468.12 122.5 a4.38 4.38 0 1 0 8.76 0 a4.38 4.38 0 1 0 -8.76 0zM13.12 122.5 a4.38 4.38 0 1 0 8.76 0 a4.38 4.38 0 1 0 -8.76 0z" fill="black"></path><path d="M223.12 52.5 a4.38 4.38 0 1 0 8.76 0 a4.38 4.38 0 1 0 -8.76 0zM573.12 17.5 a4.38 4.38 0 1 0 8.76 0 a4.38 4.38 0 1 0 -8.76 0z" fill="black"></path><path d="M83.12 332.5 a4.38 4.38 0 1 0 8.76 0 a4.38 4.38 0 1 0 -8.76 0zM398.12 157.5 a4.38 4.38 0 1 0 8.76 0 a4.38 4.38 0 1 0 -8.76 0z" fill="black"></path><path d="M993.12 507.5 a4.38 4.38 0 1 0 8.76 0 a4.38 4.38 0 1 0 -8.76 0zM783.12 507.5 a4.38 4.38 0 1 0 8.76 0 a4.38 4.38 0 1 0 -8.76 0z" fill="black"></path><path d="M118.12 507.5 a4.38 4.38 0 1 0 8.76 0 a4.38 4.38 0 1 0 -8.76 0zM13.12 507.5 a4.38 4.38 0 1 0 8.76 0 a4.38 4.38 0 1 0 -8.76 0z" fill="black"></path><path d="M1203.12 227.5 a4.38 4.38 0 1 0 8.76 0 a4.38 4.38 0 1 0 -8.76 0zM1273.12 297.5 a4.38 4.38 0 1 0 8.76 0 a4.38 4.38 0 1 0 -8.76 0z" fill="black"></path><path d="M1343.12 437.5 a4.38 4.38 0 1 0 8.76 0 a4.38 4.38 0 1 0 -8.76 0zM1448.12 122.5 a4.38 4.38 0 1 0 8.76 0 a4.38 4.38 0 1 0 -8.76 0z" fill="black"></path><path d="M748.12 227.5 a4.38 4.38 0 1 0 8.76 0 a4.38 4.38 0 1 0 -8.76 0zM923.12 52.5 a4.38 4.38 0 1 0 8.76 0 a4.38 4.38 0 1 0 -8.76 0z" fill="black"></path><path d="M118.12 227.5 a4.38 4.38 0 1 0 8.76 0 a4.38 4.38 0 1 0 -8.76 0zM13.12 227.5 a4.38 4.38 0 1 0 8.76 0 a4.38 4.38 0 1 0 -8.76 0z" fill="black"></path><path d="M1378.12 402.5 a4.38 4.38 0 1 0 8.76 0 a4.38 4.38 0 1 0 -8.76 0zM1378.12 507.5 a4.38 4.38 0 1 0 8.76 0 a4.38 4.38 0 1 0 -8.76 0z" fill="black"></path><path d="M223.12 367.5 a4.38 4.38 0 1 0 8.76 0 a4.38 4.38 0 1 0 -8.76 0zM363.12 157.5 a4.38 4.38 0 1 0 8.76 0 a4.38 4.38 0 1 0 -8.76 0z" fill="black"></path><path d="M818.12 332.5 a4.38 4.38 0 1 0 8.76 0 a4.38 4.38 0 1 0 -8.76 0zM1028.12 402.5 a4.38 4.38 0 1 0 8.76 0 a4.38 4.38 0 1 0 -8.76 0z" fill="black"></path><path d="M1098.12 122.5 a4.38 4.38 0 1 0 8.76 0 a4.38 4.38 0 1 0 -8.76 0zM1028.12 87.5 a4.38 4.38 0 1 0 8.76 0 a4.38 4.38 0 1 0 -8.76 0z" fill="black"></path><path d="M363.12 542.5 a4.38 4.38 0 1 0 8.76 0 a4.38 4.38 0 1 0 -8.76 0zM713.12 542.5 a4.38 4.38 0 1 0 8.76 0 a4.38 4.38 0 1 0 -8.76 0z" fill="black"></path><path d="M678.12 87.5 a4.38 4.38 0 1 0 8.76 0 a4.38 4.38 0 1 0 -8.76 0zM853.12 52.5 a4.38 4.38 0 1 0 8.76 0 a4.38 4.38 0 1 0 -8.76 0z" fill="black"></path><path d="M1028.12 157.5 a4.38 4.38 0 1 0 8.76 0 a4.38 4.38 0 1 0 -8.76 0zM888.12 192.5 a4.38 4.38 0 1 0 8.76 0 a4.38 4.38 0 1 0 -8.76 0z" fill="black"></path><path d="M1168.12 437.5 a4.38 4.38 0 1 0 8.76 0 a4.38 4.38 0 1 0 -8.76 0zM1238.12 402.5 a4.38 4.38 0 1 0 8.76 0 a4.38 4.38 0 1 0 -8.76 0z" fill="black"></path><path d="M748.12 402.5 a4.38 4.38 0 1 0 8.76 0 a4.38 4.38 0 1 0 -8.76 0zM608.12 297.5 a4.38 4.38 0 1 0 8.76 0 a4.38 4.38 0 1 0 -8.76 0z" fill="black"></path><path d="M678.12 122.5 a4.38 4.38 0 1 0 8.76 0 a4.38 4.38 0 1 0 -8.76 0zM643.12 17.5 a4.38 4.38 0 1 0 8.76 0 a4.38 4.38 0 1 0 -8.76 0z" fill="black"></path><path d="M1133.12 227.5 a4.38 4.38 0 1 0 8.76 0 a4.38 4.38 0 1 0 -8.76 0zM1133.12 402.5 a4.38 4.38 0 1 0 8.76 0 a4.38 4.38 0 1 0 -8.76 0z" fill="black"></path><path d="M1378.12 192.5 a4.38 4.38 0 1 0 8.76 0 a4.38 4.38 0 1 0 -8.76 0zM1413.12 507.5 a4.38 4.38 0 1 0 8.76 0 a4.38 4.38 0 1 0 -8.76 0z" fill="black"></path><path d="M118.12 472.5 a4.38 4.38 0 1 0 8.76 0 a4.38 4.38 0 1 0 -8.76 0zM13.12 297.5 a4.38 4.38 0 1 0 8.76 0 a4.38 4.38 0 1 0 -8.76 0z" fill="black"></path><path d="M818.12 297.5 a4.38 4.38 0 1 0 8.76 0 a4.38 4.38 0 1 0 -8.76 0zM888.12 262.5 a4.38 4.38 0 1 0 8.76 0 a4.38 4.38 0 1 0 -8.76 0z" fill="black"></path><path d="M118.12 192.5 a4.38 4.38 0 1 0 8.76 0 a4.38 4.38 0 1 0 -8.76 0zM328.12 157.5 a4.38 4.38 0 1 0 8.76 0 a4.38 4.38 0 1 0 -8.76 0z" fill="black"></path><path d="M608.12 507.5 a4.38 4.38 0 1 0 8.76 0 a4.38 4.38 0 1 0 -8.76 0zM678.12 507.5 a4.38 4.38 0 1 0 8.76 0 a4.38 4.38 0 1 0 -8.76 0z" fill="black"></path><path d="M258.12 437.5 a4.38 4.38 0 1 0 8.76 0 a4.38 4.38 0 1 0 -8.76 0zM363.12 262.5 a4.38 4.38 0 1 0 8.76 0 a4.38 4.38 0 1 0 -8.76 0z" fill="black"></path><path d="M783.12 367.5 a4.38 4.38 0 1 0 8.76 0 a4.38 4.38 0 1 0 -8.76 0zM993.12 402.5 a4.38 4.38 0 1 0 8.76 0 a4.38 4.38 0 1 0 -8.76 0z" fill="black"></path><path d="M188.12 192.5 a4.38 4.38 0 1 0 8.76 0 a4.38 4.38 0 1 0 -8.76 0zM13.12 157.5 a4.38 4.38 0 1 0 8.76 0 a4.38 4.38 0 1 0 -8.76 0z" fill="black"></path><path d="M13.12 437.5 a4.38 4.38 0 1 0 8.76 0 a4.38 4.38 0 1 0 -8.76 0zM83.12 402.5 a4.38 4.38 0 1 0 8.76 0 a4.38 4.38 0 1 0 -8.76 0z" fill="black"></path><path d="M1413.12 472.5 a4.38 4.38 0 1 0 8.76 0 a4.38 4.38 0 1 0 -8.76 0zM1378.12 227.5 a4.38 4.38 0 1 0 8.76 0 a4.38 4.38 0 1 0 -8.76 0z" fill="black"></path><path d="M1098.12 192.5 a4.38 4.38 0 1 0 8.76 0 a4.38 4.38 0 1 0 -8.76 0zM1028.12 262.5 a4.38 4.38 0 1 0 8.76 0 a4.38 4.38 0 1 0 -8.76 0z" fill="black"></path><path d="M678.12 17.5 a4.38 4.38 0 1 0 8.76 0 a4.38 4.38 0 1 0 -8.76 0zM713.12 87.5 a4.38 4.38 0 1 0 8.76 0 a4.38 4.38 0 1 0 -8.76 0z" fill="black"></path><path d="M468.12 367.5 a4.38 4.38 0 1 0 8.76 0 a4.38 4.38 0 1 0 -8.76 0zM608.12 367.5 a4.38 4.38 0 1 0 8.76 0 a4.38 4.38 0 1 0 -8.76 0z" fill="black"></path><path d="M1098.12 227.5 a4.38 4.38 0 1 0 8.76 0 a4.38 4.38 0 1 0 -8.76 0zM1098.12 402.5 a4.38 4.38 0 1 0 8.76 0 a4.38 4.38 0 1 0 -8.76 0z" fill="black"></path><path d="M153.12 507.5 a4.38 4.38 0 1 0 8.76 0 a4.38 4.38 0 1 0 -8.76 0zM153.12 437.5 a4.38 4.38 0 1 0 8.76 0 a4.38 4.38 0 1 0 -8.76 0z" fill="black"></path><path d="M118.12 297.5 a4.38 4.38 0 1 0 8.76 0 a4.38 4.38 0 1 0 -8.76 0zM48.12 297.5 a4.38 4.38 0 1 0 8.76 0 a4.38 4.38 0 1 0 -8.76 0z" fill="black"></path><path d="M1238.12 192.5 a4.38 4.38 0 1 0 8.76 0 a4.38 4.38 0 1 0 -8.76 0zM1168.12 192.5 a4.38 4.38 0 1 0 8.76 0 a4.38 4.38 0 1 0 -8.76 0z" fill="black"></path><path d="M83.12 87.5 a4.38 4.38 0 1 0 8.76 0 a4.38 4.38 0 1 0 -8.76 0zM573.12 52.5 a4.38 4.38 0 1 0 8.76 0 a4.38 4.38 0 1 0 -8.76 0z" fill="black"></path><path d="M188.12 332.5 a4.38 4.38 0 1 0 8.76 0 a4.38 4.38 0 1 0 -8.76 0zM118.12 332.5 a4.38 4.38 0 1 0 8.76 0 a4.38 4.38 0 1 0 -8.76 0z" fill="black"></path><path d="M1238.12 122.5 a4.38 4.38 0 1 0 8.76 0 a4.38 4.38 0 1 0 -8.76 0zM1098.12 87.5 a4.38 4.38 0 1 0 8.76 0 a4.38 4.38 0 1 0 -8.76 0z" fill="black"></path><path d="M293.12 437.5 a4.38 4.38 0 1 0 8.76 0 a4.38 4.38 0 1 0 -8.76 0zM328.12 332.5 a4.38 4.38 0 1 0 8.76 0 a4.38 4.38 0 1 0 -8.76 0z" fill="black"></path><path d="M573.12 507.5 a4.38 4.38 0 1 0 8.76 0 a4.38 4.38 0 1 0 -8.76 0zM503.12 507.5 a4.38 4.38 0 1 0 8.76 0 a4.38 4.38 0 1 0 -8.76 0z" fill="black"></path><path d="M258.12 297.5 a4.38 4.38 0 1 0 8.76 0 a4.38 4.38 0 1 0 -8.76 0zM328.12 192.5 a4.38 4.38 0 1 0 8.76 0 a4.38 4.38 0 1 0 -8.76 0z" fill="black"></path><path d="M83.12 192.5 a4.38 4.38 0 1 0 8.76 0 a4.38 4.38 0 1 0 -8.76 0zM13.12 192.5 a4.38 4.38 0 1 0 8.76 0 a4.38 4.38 0 1 0 -8.76 0z" fill="black"></path><path d="M958.12 402.5 a4.38 4.38 0 1 0 8.76 0 a4.38 4.38 0 1 0 -8.76 0zM888.12 437.5 a4.38 4.38 0 1 0 8.76 0 a4.38 4.38 0 1 0 -8.76 0z" fill="black"></path><path d="M958.12 542.5 a4.38 4.38 0 1 0 8.76 0 a4.38 4.38 0 1 0 -8.76 0zM853.12 542.5 a4.38 4.38 0 1 0 8.76 0 a4.38 4.38 0 1 0 -8.76 0z" fill="black"></path><path d="M538.12 437.5 a4.38 4.38 0 1 0 8.76 0 a4.38 4.38 0 1 0 -8.76 0zM468.12 437.5 a4.38 4.38 0 1 0 8.76 0 a4.38 4.38 0 1 0 -8.76 0z" fill="black"></path></mask></defs></svg>