<svg xmlns="http://www.w3.org/2000/svg" version="1.1" xmlns:xlink="http://www.w3.org/1999/xlink" xmlns:svgjs="http://svgjs.dev/svgjs" width="1440" height="560" preserveAspectRatio="none" viewBox="0 0 1440 560"><g mask="url(&quot;#SvgjsMask1040&quot;)" fill="none"><g mask="url(&quot;#SvgjsMask1041&quot;)"><path d="M475 551L475 19" stroke-width="6.33" stroke="rgba(162, 198, 231, 1)"></path><path d="M465.5 551 a9.5 9.5 0 1 0 19 0 a9.5 9.5 0 1 0 -19 0zM465.5 19 a9.5 9.5 0 1 0 19 0 a9.5 9.5 0 1 0 -19 0z" fill="rgba(162, 198, 231, 1)"></path><path d="M285 95L285 399L437 551" stroke-width="6.33" stroke="rgba(162, 198, 231, 1)"></path><path d="M275.5 95 a9.5 9.5 0 1 0 19 0 a9.5 9.5 0 1 0 -19 0zM427.5 551 a9.5 9.5 0 1 0 19 0 a9.5 9.5 0 1 0 -19 0z" fill="rgba(162, 198, 231, 1)"></path><path d="M1159 437L741 437L627 551L513 551" stroke-width="6.33" stroke="rgba(162, 198, 231, 1)"></path><path d="M1149.5 437 a9.5 9.5 0 1 0 19 0 a9.5 9.5 0 1 0 -19 0zM503.5 551 a9.5 9.5 0 1 0 19 0 a9.5 9.5 0 1 0 -19 0z" fill="rgba(162, 198, 231, 1)"></path><path d="M589 171L589 19" stroke-width="6.33" stroke="rgba(162, 198, 231, 1)"></path><path d="M579.5 171 a9.5 9.5 0 1 0 19 0 a9.5 9.5 0 1 0 -19 0zM579.5 19 a9.5 9.5 0 1 0 19 0 a9.5 9.5 0 1 0 -19 0z" fill="rgba(162, 198, 231, 1)"></path><path d="M741 247L627 133L627 19" stroke-width="6.33" stroke="rgba(162, 198, 231, 1)"></path><path d="M731.5 247 a9.5 9.5 0 1 0 19 0 a9.5 9.5 0 1 0 -19 0zM617.5 19 a9.5 9.5 0 1 0 19 0 a9.5 9.5 0 1 0 -19 0z" fill="rgba(162, 198, 231, 1)"></path><path d="M19 551L399 551" stroke-width="6.33" stroke="rgba(162, 198, 231, 1)"></path><path d="M9.5 551 a9.5 9.5 0 1 0 19 0 a9.5 9.5 0 1 0 -19 0zM389.5 551 a9.5 9.5 0 1 0 19 0 a9.5 9.5 0 1 0 -19 0z" fill="rgba(162, 198, 231, 1)"></path><path d="M1425 513L1311 399L1273 399L1121 551L703 551" stroke-width="6.33" stroke="rgba(162, 198, 231, 1)"></path><path d="M1415.5 513 a9.5 9.5 0 1 0 19 0 a9.5 9.5 0 1 0 -19 0zM693.5 551 a9.5 9.5 0 1 0 19 0 a9.5 9.5 0 1 0 -19 0z" fill="rgba(162, 198, 231, 1)"></path><path d="M703 399L703 437L627 513L513 513" stroke-width="6.33" stroke="rgba(162, 198, 231, 1)"></path><path d="M693.5 399 a9.5 9.5 0 1 0 19 0 a9.5 9.5 0 1 0 -19 0zM503.5 513 a9.5 9.5 0 1 0 19 0 a9.5 9.5 0 1 0 -19 0z" fill="rgba(162, 198, 231, 1)"></path><path d="M513 361L513 475" stroke-width="6.33" stroke="rgba(162, 198, 231, 1)"></path><path d="M503.5 361 a9.5 9.5 0 1 0 19 0 a9.5 9.5 0 1 0 -19 0zM503.5 475 a9.5 9.5 0 1 0 19 0 a9.5 9.5 0 1 0 -19 0z" fill="rgba(162, 198, 231, 1)"></path><path d="M57 475L209 475L247 513L361 513" stroke-width="6.33" stroke="rgba(162, 198, 231, 1)"></path><path d="M47.5 475 a9.5 9.5 0 1 0 19 0 a9.5 9.5 0 1 0 -19 0zM351.5 513 a9.5 9.5 0 1 0 19 0 a9.5 9.5 0 1 0 -19 0z" fill="rgba(162, 198, 231, 1)"></path><path d="M931 171L741 361L741 399" stroke-width="6.33" stroke="rgba(162, 198, 231, 1)"></path><path d="M921.5 171 a9.5 9.5 0 1 0 19 0 a9.5 9.5 0 1 0 -19 0zM731.5 399 a9.5 9.5 0 1 0 19 0 a9.5 9.5 0 1 0 -19 0z" fill="rgba(162, 198, 231, 1)"></path><path d="M19 475L57 513L209 513" stroke-width="6.33" stroke="rgba(162, 198, 231, 1)"></path><path d="M9.5 475 a9.5 9.5 0 1 0 19 0 a9.5 9.5 0 1 0 -19 0zM199.5 513 a9.5 9.5 0 1 0 19 0 a9.5 9.5 0 1 0 -19 0z" fill="rgba(162, 198, 231, 1)"></path><path d="M361 247L323 285L323 399L437 513" stroke-width="6.33" stroke="rgba(162, 198, 231, 1)"></path><path d="M351.5 247 a9.5 9.5 0 1 0 19 0 a9.5 9.5 0 1 0 -19 0zM427.5 513 a9.5 9.5 0 1 0 19 0 a9.5 9.5 0 1 0 -19 0z" fill="rgba(162, 198, 231, 1)"></path><path d="M1197 171L969 399L779 399" stroke-width="6.33" stroke="rgba(162, 198, 231, 1)"></path><path d="M1187.5 171 a9.5 9.5 0 1 0 19 0 a9.5 9.5 0 1 0 -19 0zM769.5 399 a9.5 9.5 0 1 0 19 0 a9.5 9.5 0 1 0 -19 0z" fill="rgba(162, 198, 231, 1)"></path><path d="M247 57L209 95L171 95L95 19L19 19" stroke-width="6.33" stroke="rgba(162, 198, 231, 1)"></path><path d="M237.5 57 a9.5 9.5 0 1 0 19 0 a9.5 9.5 0 1 0 -19 0zM9.5 19 a9.5 9.5 0 1 0 19 0 a9.5 9.5 0 1 0 -19 0z" fill="rgba(162, 198, 231, 1)"></path><path d="M209 247L247 209L247 95" stroke-width="6.33" stroke="rgba(162, 198, 231, 1)"></path><path d="M199.5 247 a9.5 9.5 0 1 0 19 0 a9.5 9.5 0 1 0 -19 0zM237.5 95 a9.5 9.5 0 1 0 19 0 a9.5 9.5 0 1 0 -19 0z" fill="rgba(162, 198, 231, 1)"></path><path d="M627 475L665 437L665 285L513 133L513 19" stroke-width="6.33" stroke="rgba(162, 198, 231, 1)"></path><path d="M617.5 475 a9.5 9.5 0 1 0 19 0 a9.5 9.5 0 1 0 -19 0zM503.5 19 a9.5 9.5 0 1 0 19 0 a9.5 9.5 0 1 0 -19 0z" fill="rgba(162, 198, 231, 1)"></path><path d="M551 475L551 209L513 171" stroke-width="6.33" stroke="rgba(162, 198, 231, 1)"></path><path d="M541.5 475 a9.5 9.5 0 1 0 19 0 a9.5 9.5 0 1 0 -19 0zM503.5 171 a9.5 9.5 0 1 0 19 0 a9.5 9.5 0 1 0 -19 0z" fill="rgba(162, 198, 231, 1)"></path><path d="M361 171L361 19" stroke-width="6.33" stroke="rgba(162, 198, 231, 1)"></path><path d="M351.5 171 a9.5 9.5 0 1 0 19 0 a9.5 9.5 0 1 0 -19 0zM351.5 19 a9.5 9.5 0 1 0 19 0 a9.5 9.5 0 1 0 -19 0z" fill="rgba(162, 198, 231, 1)"></path><path d="M817 171L817 247L703 361" stroke-width="6.33" stroke="rgba(162, 198, 231, 1)"></path><path d="M807.5 171 a9.5 9.5 0 1 0 19 0 a9.5 9.5 0 1 0 -19 0zM693.5 361 a9.5 9.5 0 1 0 19 0 a9.5 9.5 0 1 0 -19 0z" fill="rgba(162, 198, 231, 1)"></path><path d="M1235 95L665 95" stroke-width="6.33" stroke="rgba(162, 198, 231, 1)"></path><path d="M1225.5 95 a9.5 9.5 0 1 0 19 0 a9.5 9.5 0 1 0 -19 0zM655.5 95 a9.5 9.5 0 1 0 19 0 a9.5 9.5 0 1 0 -19 0z" fill="rgba(162, 198, 231, 1)"></path><path d="M1159 323L1425 57L1425 19" stroke-width="6.33" stroke="rgba(162, 198, 231, 1)"></path><path d="M1149.5 323 a9.5 9.5 0 1 0 19 0 a9.5 9.5 0 1 0 -19 0zM1415.5 19 a9.5 9.5 0 1 0 19 0 a9.5 9.5 0 1 0 -19 0z" fill="rgba(162, 198, 231, 1)"></path><path d="M551 133L551 19" stroke-width="6.33" stroke="rgba(162, 198, 231, 1)"></path><path d="M541.5 133 a9.5 9.5 0 1 0 19 0 a9.5 9.5 0 1 0 -19 0zM541.5 19 a9.5 9.5 0 1 0 19 0 a9.5 9.5 0 1 0 -19 0z" fill="rgba(162, 198, 231, 1)"></path><path d="M19 437L19 57" stroke-width="6.33" stroke="rgba(162, 198, 231, 1)"></path><path d="M9.5 437 a9.5 9.5 0 1 0 19 0 a9.5 9.5 0 1 0 -19 0zM9.5 57 a9.5 9.5 0 1 0 19 0 a9.5 9.5 0 1 0 -19 0z" fill="rgba(162, 198, 231, 1)"></path><path d="M1159 399L1159 361L1425 95" stroke-width="6.33" stroke="rgba(162, 198, 231, 1)"></path><path d="M1149.5 399 a9.5 9.5 0 1 0 19 0 a9.5 9.5 0 1 0 -19 0zM1415.5 95 a9.5 9.5 0 1 0 19 0 a9.5 9.5 0 1 0 -19 0z" fill="rgba(162, 198, 231, 1)"></path><path d="M1273 513L1197 513L1159 551" stroke-width="6.33" stroke="rgba(162, 198, 231, 1)"></path><path d="M1263.5 513 a9.5 9.5 0 1 0 19 0 a9.5 9.5 0 1 0 -19 0zM1149.5 551 a9.5 9.5 0 1 0 19 0 a9.5 9.5 0 1 0 -19 0z" fill="rgba(162, 198, 231, 1)"></path><path d="M399 171L399 95L437 57L437 19" stroke-width="6.33" stroke="rgba(162, 198, 231, 1)"></path><path d="M389.5 171 a9.5 9.5 0 1 0 19 0 a9.5 9.5 0 1 0 -19 0zM427.5 19 a9.5 9.5 0 1 0 19 0 a9.5 9.5 0 1 0 -19 0z" fill="rgba(162, 198, 231, 1)"></path><path d="M171 209L95 133L57 133" stroke-width="6.33" stroke="rgba(162, 198, 231, 1)"></path><path d="M161.5 209 a9.5 9.5 0 1 0 19 0 a9.5 9.5 0 1 0 -19 0zM47.5 133 a9.5 9.5 0 1 0 19 0 a9.5 9.5 0 1 0 -19 0z" fill="rgba(162, 198, 231, 1)"></path><path d="M855 133L1083 133L1121 171L1159 171L1197 133L1311 133L1387 57L1387 19" stroke-width="6.33" stroke="rgba(162, 198, 231, 1)"></path><path d="M845.5 133 a9.5 9.5 0 1 0 19 0 a9.5 9.5 0 1 0 -19 0zM1377.5 19 a9.5 9.5 0 1 0 19 0 a9.5 9.5 0 1 0 -19 0z" fill="rgba(162, 198, 231, 1)"></path><path d="M703 171L779 247" stroke-width="6.33" stroke="rgba(162, 198, 231, 1)"></path><path d="M693.5 171 a9.5 9.5 0 1 0 19 0 a9.5 9.5 0 1 0 -19 0zM769.5 247 a9.5 9.5 0 1 0 19 0 a9.5 9.5 0 1 0 -19 0z" fill="rgba(162, 198, 231, 1)"></path><path d="M1349 57L1311 95L1273 95L1235 57L1235 19" stroke-width="6.33" stroke="rgba(162, 198, 231, 1)"></path><path d="M1339.5 57 a9.5 9.5 0 1 0 19 0 a9.5 9.5 0 1 0 -19 0zM1225.5 19 a9.5 9.5 0 1 0 19 0 a9.5 9.5 0 1 0 -19 0z" fill="rgba(162, 198, 231, 1)"></path><path d="M95 399L247 247" stroke-width="6.33" stroke="rgba(162, 198, 231, 1)"></path><path d="M85.5 399 a9.5 9.5 0 1 0 19 0 a9.5 9.5 0 1 0 -19 0zM237.5 247 a9.5 9.5 0 1 0 19 0 a9.5 9.5 0 1 0 -19 0z" fill="rgba(162, 198, 231, 1)"></path><path d="M1045 361L1083 399L1121 399" stroke-width="6.33" stroke="rgba(162, 198, 231, 1)"></path><path d="M1035.5 361 a9.5 9.5 0 1 0 19 0 a9.5 9.5 0 1 0 -19 0zM1111.5 399 a9.5 9.5 0 1 0 19 0 a9.5 9.5 0 1 0 -19 0z" fill="rgba(162, 198, 231, 1)"></path><path d="M247 19L323 19" stroke-width="6.33" stroke="rgba(162, 198, 231, 1)"></path><path d="M237.5 19 a9.5 9.5 0 1 0 19 0 a9.5 9.5 0 1 0 -19 0zM313.5 19 a9.5 9.5 0 1 0 19 0 a9.5 9.5 0 1 0 -19 0z" fill="rgba(162, 198, 231, 1)"></path><path d="M1159 57L665 57" stroke-width="6.33" stroke="rgba(162, 198, 231, 1)"></path><path d="M1149.5 57 a9.5 9.5 0 1 0 19 0 a9.5 9.5 0 1 0 -19 0zM655.5 57 a9.5 9.5 0 1 0 19 0 a9.5 9.5 0 1 0 -19 0z" fill="rgba(162, 198, 231, 1)"></path><path d="M1349 247L1311 247L1273 285L1273 361L1197 437" stroke-width="6.33" stroke="rgba(162, 198, 231, 1)"></path><path d="M1339.5 247 a9.5 9.5 0 1 0 19 0 a9.5 9.5 0 1 0 -19 0zM1187.5 437 a9.5 9.5 0 1 0 19 0 a9.5 9.5 0 1 0 -19 0z" fill="rgba(162, 198, 231, 1)"></path><path d="M779 209L779 133" stroke-width="6.33" stroke="rgba(162, 198, 231, 1)"></path><path d="M769.5 209 a9.5 9.5 0 1 0 19 0 a9.5 9.5 0 1 0 -19 0zM769.5 133 a9.5 9.5 0 1 0 19 0 a9.5 9.5 0 1 0 -19 0z" fill="rgba(162, 198, 231, 1)"></path><path d="M171 399L133 437L57 437" stroke-width="6.33" stroke="rgba(162, 198, 231, 1)"></path><path d="M161.5 399 a9.5 9.5 0 1 0 19 0 a9.5 9.5 0 1 0 -19 0zM47.5 437 a9.5 9.5 0 1 0 19 0 a9.5 9.5 0 1 0 -19 0z" fill="rgba(162, 198, 231, 1)"></path><path d="M1197 247L1197 209L1235 171" stroke-width="6.33" stroke="rgba(162, 198, 231, 1)"></path><path d="M1187.5 247 a9.5 9.5 0 1 0 19 0 a9.5 9.5 0 1 0 -19 0zM1225.5 171 a9.5 9.5 0 1 0 19 0 a9.5 9.5 0 1 0 -19 0z" fill="rgba(162, 198, 231, 1)"></path><path d="M969 209L931 209L779 361" stroke-width="6.33" stroke="rgba(162, 198, 231, 1)"></path><path d="M959.5 209 a9.5 9.5 0 1 0 19 0 a9.5 9.5 0 1 0 -19 0zM769.5 361 a9.5 9.5 0 1 0 19 0 a9.5 9.5 0 1 0 -19 0z" fill="rgba(162, 198, 231, 1)"></path><path d="M893 475L931 513L1007 513" stroke-width="6.33" stroke="rgba(162, 198, 231, 1)"></path><path d="M883.5 475 a9.5 9.5 0 1 0 19 0 a9.5 9.5 0 1 0 -19 0zM997.5 513 a9.5 9.5 0 1 0 19 0 a9.5 9.5 0 1 0 -19 0z" fill="rgba(162, 198, 231, 1)"></path><path d="M247 285L171 361" stroke-width="6.33" stroke="rgba(162, 198, 231, 1)"></path><path d="M237.5 285 a9.5 9.5 0 1 0 19 0 a9.5 9.5 0 1 0 -19 0zM161.5 361 a9.5 9.5 0 1 0 19 0 a9.5 9.5 0 1 0 -19 0z" fill="rgba(162, 198, 231, 1)"></path><path d="M171 437L247 361L247 323" stroke-width="6.33" stroke="rgba(162, 198, 231, 1)"></path><path d="M161.5 437 a9.5 9.5 0 1 0 19 0 a9.5 9.5 0 1 0 -19 0zM237.5 323 a9.5 9.5 0 1 0 19 0 a9.5 9.5 0 1 0 -19 0z" fill="rgba(162, 198, 231, 1)"></path><path d="M893 285L931 247L1083 247L1121 209" stroke-width="6.33" stroke="rgba(162, 198, 231, 1)"></path><path d="M883.5 285 a9.5 9.5 0 1 0 19 0 a9.5 9.5 0 1 0 -19 0zM1111.5 209 a9.5 9.5 0 1 0 19 0 a9.5 9.5 0 1 0 -19 0z" fill="rgba(162, 198, 231, 1)"></path><path d="M1007 209L1083 209" stroke-width="6.33" stroke="rgba(162, 198, 231, 1)"></path><path d="M997.5 209 a9.5 9.5 0 1 0 19 0 a9.5 9.5 0 1 0 -19 0zM1073.5 209 a9.5 9.5 0 1 0 19 0 a9.5 9.5 0 1 0 -19 0z" fill="rgba(162, 198, 231, 1)"></path><path d="M1121 19L665 19" stroke-width="6.33" stroke="rgba(162, 198, 231, 1)"></path><path d="M1111.5 19 a9.5 9.5 0 1 0 19 0 a9.5 9.5 0 1 0 -19 0zM655.5 19 a9.5 9.5 0 1 0 19 0 a9.5 9.5 0 1 0 -19 0z" fill="rgba(162, 198, 231, 1)"></path><path d="M399 209L323 209" stroke-width="6.33" stroke="rgba(162, 198, 231, 1)"></path><path d="M389.5 209 a9.5 9.5 0 1 0 19 0 a9.5 9.5 0 1 0 -19 0zM313.5 209 a9.5 9.5 0 1 0 19 0 a9.5 9.5 0 1 0 -19 0z" fill="rgba(162, 198, 231, 1)"></path><path d="M1349 551L1425 551" stroke-width="6.33" stroke="rgba(162, 198, 231, 1)"></path><path d="M1339.5 551 a9.5 9.5 0 1 0 19 0 a9.5 9.5 0 1 0 -19 0zM1415.5 551 a9.5 9.5 0 1 0 19 0 a9.5 9.5 0 1 0 -19 0z" fill="rgba(162, 198, 231, 1)"></path><path d="M1083 171L969 171" stroke-width="6.33" stroke="rgba(162, 198, 231, 1)"></path><path d="M1073.5 171 a9.5 9.5 0 1 0 19 0 a9.5 9.5 0 1 0 -19 0zM959.5 171 a9.5 9.5 0 1 0 19 0 a9.5 9.5 0 1 0 -19 0z" fill="rgba(162, 198, 231, 1)"></path><path d="M171 247L57 247" stroke-width="6.33" stroke="rgba(162, 198, 231, 1)"></path><path d="M161.5 247 a9.5 9.5 0 1 0 19 0 a9.5 9.5 0 1 0 -19 0zM47.5 247 a9.5 9.5 0 1 0 19 0 a9.5 9.5 0 1 0 -19 0z" fill="rgba(162, 198, 231, 1)"></path><path d="M1311 437L1273 475L1235 475" stroke-width="6.33" stroke="rgba(162, 198, 231, 1)"></path><path d="M1301.5 437 a9.5 9.5 0 1 0 19 0 a9.5 9.5 0 1 0 -19 0zM1225.5 475 a9.5 9.5 0 1 0 19 0 a9.5 9.5 0 1 0 -19 0z" fill="rgba(162, 198, 231, 1)"></path><path d="M95 57L95 95L133 133L171 133" stroke-width="6.33" stroke="rgba(162, 198, 231, 1)"></path><path d="M85.5 57 a9.5 9.5 0 1 0 19 0 a9.5 9.5 0 1 0 -19 0zM161.5 133 a9.5 9.5 0 1 0 19 0 a9.5 9.5 0 1 0 -19 0z" fill="rgba(162, 198, 231, 1)"></path><path d="M1235 323L1235 361L1197 399" stroke-width="6.33" stroke="rgba(162, 198, 231, 1)"></path><path d="M1225.5 323 a9.5 9.5 0 1 0 19 0 a9.5 9.5 0 1 0 -19 0zM1187.5 399 a9.5 9.5 0 1 0 19 0 a9.5 9.5 0 1 0 -19 0z" fill="rgba(162, 198, 231, 1)"></path><path d="M361 399L437 399" stroke-width="6.33" stroke="rgba(162, 198, 231, 1)"></path><path d="M351.5 399 a9.5 9.5 0 1 0 19 0 a9.5 9.5 0 1 0 -19 0zM427.5 399 a9.5 9.5 0 1 0 19 0 a9.5 9.5 0 1 0 -19 0z" fill="rgba(162, 198, 231, 1)"></path><path d="M665 247L703 285L741 285" stroke-width="6.33" stroke="rgba(162, 198, 231, 1)"></path><path d="M655.5 247 a9.5 9.5 0 1 0 19 0 a9.5 9.5 0 1 0 -19 0zM731.5 285 a9.5 9.5 0 1 0 19 0 a9.5 9.5 0 1 0 -19 0z" fill="rgba(162, 198, 231, 1)"></path><path d="M1349 361L1349 399L1425 475" stroke-width="6.33" stroke="rgba(162, 198, 231, 1)"></path><path d="M1339.5 361 a9.5 9.5 0 1 0 19 0 a9.5 9.5 0 1 0 -19 0zM1415.5 475 a9.5 9.5 0 1 0 19 0 a9.5 9.5 0 1 0 -19 0z" fill="rgba(162, 198, 231, 1)"></path><path d="M57 399L133 323" stroke-width="6.33" stroke="rgba(162, 198, 231, 1)"></path><path d="M47.5 399 a9.5 9.5 0 1 0 19 0 a9.5 9.5 0 1 0 -19 0zM123.5 323 a9.5 9.5 0 1 0 19 0 a9.5 9.5 0 1 0 -19 0z" fill="rgba(162, 198, 231, 1)"></path><path d="M1425 323L1425 285L1349 209" stroke-width="6.33" stroke="rgba(162, 198, 231, 1)"></path><path d="M1415.5 323 a9.5 9.5 0 1 0 19 0 a9.5 9.5 0 1 0 -19 0zM1339.5 209 a9.5 9.5 0 1 0 19 0 a9.5 9.5 0 1 0 -19 0z" fill="rgba(162, 198, 231, 1)"></path><path d="M893 361L817 361" stroke-width="6.33" stroke="rgba(162, 198, 231, 1)"></path><path d="M883.5 361 a9.5 9.5 0 1 0 19 0 a9.5 9.5 0 1 0 -19 0zM807.5 361 a9.5 9.5 0 1 0 19 0 a9.5 9.5 0 1 0 -19 0z" fill="rgba(162, 198, 231, 1)"></path><path d="M1007 475L931 475" stroke-width="6.33" stroke="rgba(162, 198, 231, 1)"></path><path d="M997.5 475 a9.5 9.5 0 1 0 19 0 a9.5 9.5 0 1 0 -19 0zM921.5 475 a9.5 9.5 0 1 0 19 0 a9.5 9.5 0 1 0 -19 0z" fill="rgba(162, 198, 231, 1)"></path><path d="M855 323L969 323L1007 285L1045 285" stroke-width="6.33" stroke="rgba(162, 198, 231, 1)"></path><path d="M845.5 323 a9.5 9.5 0 1 0 19 0 a9.5 9.5 0 1 0 -19 0zM1035.5 285 a9.5 9.5 0 1 0 19 0 a9.5 9.5 0 1 0 -19 0z" fill="rgba(162, 198, 231, 1)"></path><path d="M399 285L361 323L361 361" stroke-width="6.33" stroke="rgba(162, 198, 231, 1)"></path><path d="M389.5 285 a9.5 9.5 0 1 0 19 0 a9.5 9.5 0 1 0 -19 0zM351.5 361 a9.5 9.5 0 1 0 19 0 a9.5 9.5 0 1 0 -19 0z" fill="rgba(162, 198, 231, 1)"></path></g></g><defs><mask id="SvgjsMask1040"><rect width="1440" height="560" fill="#ffffff"></rect></mask><mask id="SvgjsMask1041"><rect width="1440" height="560" fill="white"></rect><path d="M470.25 551 a4.75 4.75 0 1 0 9.5 0 a4.75 4.75 0 1 0 -9.5 0zM470.25 19 a4.75 4.75 0 1 0 9.5 0 a4.75 4.75 0 1 0 -9.5 0z" fill="black"></path><path d="M280.25 95 a4.75 4.75 0 1 0 9.5 0 a4.75 4.75 0 1 0 -9.5 0zM432.25 551 a4.75 4.75 0 1 0 9.5 0 a4.75 4.75 0 1 0 -9.5 0z" fill="black"></path><path d="M1154.25 437 a4.75 4.75 0 1 0 9.5 0 a4.75 4.75 0 1 0 -9.5 0zM508.25 551 a4.75 4.75 0 1 0 9.5 0 a4.75 4.75 0 1 0 -9.5 0z" fill="black"></path><path d="M584.25 171 a4.75 4.75 0 1 0 9.5 0 a4.75 4.75 0 1 0 -9.5 0zM584.25 19 a4.75 4.75 0 1 0 9.5 0 a4.75 4.75 0 1 0 -9.5 0z" fill="black"></path><path d="M736.25 247 a4.75 4.75 0 1 0 9.5 0 a4.75 4.75 0 1 0 -9.5 0zM622.25 19 a4.75 4.75 0 1 0 9.5 0 a4.75 4.75 0 1 0 -9.5 0z" fill="black"></path><path d="M14.25 551 a4.75 4.75 0 1 0 9.5 0 a4.75 4.75 0 1 0 -9.5 0zM394.25 551 a4.75 4.75 0 1 0 9.5 0 a4.75 4.75 0 1 0 -9.5 0z" fill="black"></path><path d="M1420.25 513 a4.75 4.75 0 1 0 9.5 0 a4.75 4.75 0 1 0 -9.5 0zM698.25 551 a4.75 4.75 0 1 0 9.5 0 a4.75 4.75 0 1 0 -9.5 0z" fill="black"></path><path d="M698.25 399 a4.75 4.75 0 1 0 9.5 0 a4.75 4.75 0 1 0 -9.5 0zM508.25 513 a4.75 4.75 0 1 0 9.5 0 a4.75 4.75 0 1 0 -9.5 0z" fill="black"></path><path d="M508.25 361 a4.75 4.75 0 1 0 9.5 0 a4.75 4.75 0 1 0 -9.5 0zM508.25 475 a4.75 4.75 0 1 0 9.5 0 a4.75 4.75 0 1 0 -9.5 0z" fill="black"></path><path d="M52.25 475 a4.75 4.75 0 1 0 9.5 0 a4.75 4.75 0 1 0 -9.5 0zM356.25 513 a4.75 4.75 0 1 0 9.5 0 a4.75 4.75 0 1 0 -9.5 0z" fill="black"></path><path d="M926.25 171 a4.75 4.75 0 1 0 9.5 0 a4.75 4.75 0 1 0 -9.5 0zM736.25 399 a4.75 4.75 0 1 0 9.5 0 a4.75 4.75 0 1 0 -9.5 0z" fill="black"></path><path d="M14.25 475 a4.75 4.75 0 1 0 9.5 0 a4.75 4.75 0 1 0 -9.5 0zM204.25 513 a4.75 4.75 0 1 0 9.5 0 a4.75 4.75 0 1 0 -9.5 0z" fill="black"></path><path d="M356.25 247 a4.75 4.75 0 1 0 9.5 0 a4.75 4.75 0 1 0 -9.5 0zM432.25 513 a4.75 4.75 0 1 0 9.5 0 a4.75 4.75 0 1 0 -9.5 0z" fill="black"></path><path d="M1192.25 171 a4.75 4.75 0 1 0 9.5 0 a4.75 4.75 0 1 0 -9.5 0zM774.25 399 a4.75 4.75 0 1 0 9.5 0 a4.75 4.75 0 1 0 -9.5 0z" fill="black"></path><path d="M242.25 57 a4.75 4.75 0 1 0 9.5 0 a4.75 4.75 0 1 0 -9.5 0zM14.25 19 a4.75 4.75 0 1 0 9.5 0 a4.75 4.75 0 1 0 -9.5 0z" fill="black"></path><path d="M204.25 247 a4.75 4.75 0 1 0 9.5 0 a4.75 4.75 0 1 0 -9.5 0zM242.25 95 a4.75 4.75 0 1 0 9.5 0 a4.75 4.75 0 1 0 -9.5 0z" fill="black"></path><path d="M622.25 475 a4.75 4.75 0 1 0 9.5 0 a4.75 4.75 0 1 0 -9.5 0zM508.25 19 a4.75 4.75 0 1 0 9.5 0 a4.75 4.75 0 1 0 -9.5 0z" fill="black"></path><path d="M546.25 475 a4.75 4.75 0 1 0 9.5 0 a4.75 4.75 0 1 0 -9.5 0zM508.25 171 a4.75 4.75 0 1 0 9.5 0 a4.75 4.75 0 1 0 -9.5 0z" fill="black"></path><path d="M356.25 171 a4.75 4.75 0 1 0 9.5 0 a4.75 4.75 0 1 0 -9.5 0zM356.25 19 a4.75 4.75 0 1 0 9.5 0 a4.75 4.75 0 1 0 -9.5 0z" fill="black"></path><path d="M812.25 171 a4.75 4.75 0 1 0 9.5 0 a4.75 4.75 0 1 0 -9.5 0zM698.25 361 a4.75 4.75 0 1 0 9.5 0 a4.75 4.75 0 1 0 -9.5 0z" fill="black"></path><path d="M1230.25 95 a4.75 4.75 0 1 0 9.5 0 a4.75 4.75 0 1 0 -9.5 0zM660.25 95 a4.75 4.75 0 1 0 9.5 0 a4.75 4.75 0 1 0 -9.5 0z" fill="black"></path><path d="M1154.25 323 a4.75 4.75 0 1 0 9.5 0 a4.75 4.75 0 1 0 -9.5 0zM1420.25 19 a4.75 4.75 0 1 0 9.5 0 a4.75 4.75 0 1 0 -9.5 0z" fill="black"></path><path d="M546.25 133 a4.75 4.75 0 1 0 9.5 0 a4.75 4.75 0 1 0 -9.5 0zM546.25 19 a4.75 4.75 0 1 0 9.5 0 a4.75 4.75 0 1 0 -9.5 0z" fill="black"></path><path d="M14.25 437 a4.75 4.75 0 1 0 9.5 0 a4.75 4.75 0 1 0 -9.5 0zM14.25 57 a4.75 4.75 0 1 0 9.5 0 a4.75 4.75 0 1 0 -9.5 0z" fill="black"></path><path d="M1154.25 399 a4.75 4.75 0 1 0 9.5 0 a4.75 4.75 0 1 0 -9.5 0zM1420.25 95 a4.75 4.75 0 1 0 9.5 0 a4.75 4.75 0 1 0 -9.5 0z" fill="black"></path><path d="M1268.25 513 a4.75 4.75 0 1 0 9.5 0 a4.75 4.75 0 1 0 -9.5 0zM1154.25 551 a4.75 4.75 0 1 0 9.5 0 a4.75 4.75 0 1 0 -9.5 0z" fill="black"></path><path d="M394.25 171 a4.75 4.75 0 1 0 9.5 0 a4.75 4.75 0 1 0 -9.5 0zM432.25 19 a4.75 4.75 0 1 0 9.5 0 a4.75 4.75 0 1 0 -9.5 0z" fill="black"></path><path d="M166.25 209 a4.75 4.75 0 1 0 9.5 0 a4.75 4.75 0 1 0 -9.5 0zM52.25 133 a4.75 4.75 0 1 0 9.5 0 a4.75 4.75 0 1 0 -9.5 0z" fill="black"></path><path d="M850.25 133 a4.75 4.75 0 1 0 9.5 0 a4.75 4.75 0 1 0 -9.5 0zM1382.25 19 a4.75 4.75 0 1 0 9.5 0 a4.75 4.75 0 1 0 -9.5 0z" fill="black"></path><path d="M698.25 171 a4.75 4.75 0 1 0 9.5 0 a4.75 4.75 0 1 0 -9.5 0zM774.25 247 a4.75 4.75 0 1 0 9.5 0 a4.75 4.75 0 1 0 -9.5 0z" fill="black"></path><path d="M1344.25 57 a4.75 4.75 0 1 0 9.5 0 a4.75 4.75 0 1 0 -9.5 0zM1230.25 19 a4.75 4.75 0 1 0 9.5 0 a4.75 4.75 0 1 0 -9.5 0z" fill="black"></path><path d="M90.25 399 a4.75 4.75 0 1 0 9.5 0 a4.75 4.75 0 1 0 -9.5 0zM242.25 247 a4.75 4.75 0 1 0 9.5 0 a4.75 4.75 0 1 0 -9.5 0z" fill="black"></path><path d="M1040.25 361 a4.75 4.75 0 1 0 9.5 0 a4.75 4.75 0 1 0 -9.5 0zM1116.25 399 a4.75 4.75 0 1 0 9.5 0 a4.75 4.75 0 1 0 -9.5 0z" fill="black"></path><path d="M242.25 19 a4.75 4.75 0 1 0 9.5 0 a4.75 4.75 0 1 0 -9.5 0zM318.25 19 a4.75 4.75 0 1 0 9.5 0 a4.75 4.75 0 1 0 -9.5 0z" fill="black"></path><path d="M1154.25 57 a4.75 4.75 0 1 0 9.5 0 a4.75 4.75 0 1 0 -9.5 0zM660.25 57 a4.75 4.75 0 1 0 9.5 0 a4.75 4.75 0 1 0 -9.5 0z" fill="black"></path><path d="M1344.25 247 a4.75 4.75 0 1 0 9.5 0 a4.75 4.75 0 1 0 -9.5 0zM1192.25 437 a4.75 4.75 0 1 0 9.5 0 a4.75 4.75 0 1 0 -9.5 0z" fill="black"></path><path d="M774.25 209 a4.75 4.75 0 1 0 9.5 0 a4.75 4.75 0 1 0 -9.5 0zM774.25 133 a4.75 4.75 0 1 0 9.5 0 a4.75 4.75 0 1 0 -9.5 0z" fill="black"></path><path d="M166.25 399 a4.75 4.75 0 1 0 9.5 0 a4.75 4.75 0 1 0 -9.5 0zM52.25 437 a4.75 4.75 0 1 0 9.5 0 a4.75 4.75 0 1 0 -9.5 0z" fill="black"></path><path d="M1192.25 247 a4.75 4.75 0 1 0 9.5 0 a4.75 4.75 0 1 0 -9.5 0zM1230.25 171 a4.75 4.75 0 1 0 9.5 0 a4.75 4.75 0 1 0 -9.5 0z" fill="black"></path><path d="M964.25 209 a4.75 4.75 0 1 0 9.5 0 a4.75 4.75 0 1 0 -9.5 0zM774.25 361 a4.75 4.75 0 1 0 9.5 0 a4.75 4.75 0 1 0 -9.5 0z" fill="black"></path><path d="M888.25 475 a4.75 4.75 0 1 0 9.5 0 a4.75 4.75 0 1 0 -9.5 0zM1002.25 513 a4.75 4.75 0 1 0 9.5 0 a4.75 4.75 0 1 0 -9.5 0z" fill="black"></path><path d="M242.25 285 a4.75 4.75 0 1 0 9.5 0 a4.75 4.75 0 1 0 -9.5 0zM166.25 361 a4.75 4.75 0 1 0 9.5 0 a4.75 4.75 0 1 0 -9.5 0z" fill="black"></path><path d="M166.25 437 a4.75 4.75 0 1 0 9.5 0 a4.75 4.75 0 1 0 -9.5 0zM242.25 323 a4.75 4.75 0 1 0 9.5 0 a4.75 4.75 0 1 0 -9.5 0z" fill="black"></path><path d="M888.25 285 a4.75 4.75 0 1 0 9.5 0 a4.75 4.75 0 1 0 -9.5 0zM1116.25 209 a4.75 4.75 0 1 0 9.5 0 a4.75 4.75 0 1 0 -9.5 0z" fill="black"></path><path d="M1002.25 209 a4.75 4.75 0 1 0 9.5 0 a4.75 4.75 0 1 0 -9.5 0zM1078.25 209 a4.75 4.75 0 1 0 9.5 0 a4.75 4.75 0 1 0 -9.5 0z" fill="black"></path><path d="M1116.25 19 a4.75 4.75 0 1 0 9.5 0 a4.75 4.75 0 1 0 -9.5 0zM660.25 19 a4.75 4.75 0 1 0 9.5 0 a4.75 4.75 0 1 0 -9.5 0z" fill="black"></path><path d="M394.25 209 a4.75 4.75 0 1 0 9.5 0 a4.75 4.75 0 1 0 -9.5 0zM318.25 209 a4.75 4.75 0 1 0 9.5 0 a4.75 4.75 0 1 0 -9.5 0z" fill="black"></path><path d="M1344.25 551 a4.75 4.75 0 1 0 9.5 0 a4.75 4.75 0 1 0 -9.5 0zM1420.25 551 a4.75 4.75 0 1 0 9.5 0 a4.75 4.75 0 1 0 -9.5 0z" fill="black"></path><path d="M1078.25 171 a4.75 4.75 0 1 0 9.5 0 a4.75 4.75 0 1 0 -9.5 0zM964.25 171 a4.75 4.75 0 1 0 9.5 0 a4.75 4.75 0 1 0 -9.5 0z" fill="black"></path><path d="M166.25 247 a4.75 4.75 0 1 0 9.5 0 a4.75 4.75 0 1 0 -9.5 0zM52.25 247 a4.75 4.75 0 1 0 9.5 0 a4.75 4.75 0 1 0 -9.5 0z" fill="black"></path><path d="M1306.25 437 a4.75 4.75 0 1 0 9.5 0 a4.75 4.75 0 1 0 -9.5 0zM1230.25 475 a4.75 4.75 0 1 0 9.5 0 a4.75 4.75 0 1 0 -9.5 0z" fill="black"></path><path d="M90.25 57 a4.75 4.75 0 1 0 9.5 0 a4.75 4.75 0 1 0 -9.5 0zM166.25 133 a4.75 4.75 0 1 0 9.5 0 a4.75 4.75 0 1 0 -9.5 0z" fill="black"></path><path d="M1230.25 323 a4.75 4.75 0 1 0 9.5 0 a4.75 4.75 0 1 0 -9.5 0zM1192.25 399 a4.75 4.75 0 1 0 9.5 0 a4.75 4.75 0 1 0 -9.5 0z" fill="black"></path><path d="M356.25 399 a4.75 4.75 0 1 0 9.5 0 a4.75 4.75 0 1 0 -9.5 0zM432.25 399 a4.75 4.75 0 1 0 9.5 0 a4.75 4.75 0 1 0 -9.5 0z" fill="black"></path><path d="M660.25 247 a4.75 4.75 0 1 0 9.5 0 a4.75 4.75 0 1 0 -9.5 0zM736.25 285 a4.75 4.75 0 1 0 9.5 0 a4.75 4.75 0 1 0 -9.5 0z" fill="black"></path><path d="M1344.25 361 a4.75 4.75 0 1 0 9.5 0 a4.75 4.75 0 1 0 -9.5 0zM1420.25 475 a4.75 4.75 0 1 0 9.5 0 a4.75 4.75 0 1 0 -9.5 0z" fill="black"></path><path d="M52.25 399 a4.75 4.75 0 1 0 9.5 0 a4.75 4.75 0 1 0 -9.5 0zM128.25 323 a4.75 4.75 0 1 0 9.5 0 a4.75 4.75 0 1 0 -9.5 0z" fill="black"></path><path d="M1420.25 323 a4.75 4.75 0 1 0 9.5 0 a4.75 4.75 0 1 0 -9.5 0zM1344.25 209 a4.75 4.75 0 1 0 9.5 0 a4.75 4.75 0 1 0 -9.5 0z" fill="black"></path><path d="M888.25 361 a4.75 4.75 0 1 0 9.5 0 a4.75 4.75 0 1 0 -9.5 0zM812.25 361 a4.75 4.75 0 1 0 9.5 0 a4.75 4.75 0 1 0 -9.5 0z" fill="black"></path><path d="M1002.25 475 a4.75 4.75 0 1 0 9.5 0 a4.75 4.75 0 1 0 -9.5 0zM926.25 475 a4.75 4.75 0 1 0 9.5 0 a4.75 4.75 0 1 0 -9.5 0z" fill="black"></path><path d="M850.25 323 a4.75 4.75 0 1 0 9.5 0 a4.75 4.75 0 1 0 -9.5 0zM1040.25 285 a4.75 4.75 0 1 0 9.5 0 a4.75 4.75 0 1 0 -9.5 0z" fill="black"></path><path d="M394.25 285 a4.75 4.75 0 1 0 9.5 0 a4.75 4.75 0 1 0 -9.5 0zM356.25 361 a4.75 4.75 0 1 0 9.5 0 a4.75 4.75 0 1 0 -9.5 0z" fill="black"></path></mask></defs></svg>